<svg xmlns="http://www.w3.org/2000/svg" width="256" height="256"><path fill="#1976D2" fill-opacity=".016" fill-rule="evenodd" d="M0 128.004v128.004l128.25-.254 128.25-.254.254-127.75L257.008 0H0zm.485.496c0 70.4.119 99.053.265 63.672s.146-92.98 0-128S.485 58.1.485 128.5"/><path fill="#1976D2" fill-opacity=".362" fill-rule="evenodd" d="M115 1.019C84.606 4.021 60.032 15.778 37.905 37.905 19.082 56.728 7.973 77.098 2.406 103c-2.476 11.522-2.514 35.989-.074 48.275C7.373 176.666 18.996 198.107 37.96 217c19.201 19.128 41.387 30.996 67.54 36.127 10.439 2.048 36.875 1.789 47.5-.465 40.272-8.543 73.539-34.562 90.984-71.162C251.153 166.46 257 141.521 257 125.982c0-8.606-4.215-30.674-7.725-40.448-13.308-37.056-42.888-66.102-79.886-78.444C153.403 1.757 131.867-.647 115 1.019m-1 14.037c-35.328 4.398-65.563 23.996-83.476 54.11-24.893 41.848-21.16 92.091 9.694 130.444 14.262 17.729 39.867 34.387 55.475 36.091 4.77.521 5.431.329 8.113-2.354 2.578-2.577 3.59-5.666 8.622-26.314 9.94-40.791 13.448-48.879 27.201-62.706 6.936-6.973 9.653-8.91 18.5-13.189 6.954-3.362 14.984-6.192 24.371-8.588 28.181-7.193 42.232-17.188 46.896-33.358 1.668-5.785 1.326-9.239-1.595-16.117-4.975-11.711-20.145-28.917-33.301-37.768-23.49-15.805-54.183-23.526-80.5-20.251m28.611 22.974c-1.457 9.11-7.639 16.382-18.164 21.365-2.948 1.396-11.567 4.401-19.154 6.678-17.818 5.348-26.028 9.648-34.455 18.045-11.645 11.602-18.932 31.205-17.465 46.984C54.601 144.318 58 153.768 58 143.968c0-5.576 3.462-15.319 7.728-21.746 6.82-10.275 17.033-16.073 40.772-23.146 18.291-5.45 25.316-8.797 31.552-15.032 7.39-7.39 10.116-14.155 10.697-26.544.394-8.409.135-10.945-1.632-15.942-2.771-7.838-3.7-8.566-4.506-3.528m34.855 29.37c-14.246 6.206-14.994 26.809-1.216 33.479 17.922 8.676 34.877-12.735 22.522-28.442-4.368-5.553-14.58-7.967-21.306-5.037m-23.829 15.082c-3.259 10.338-12.441 19.294-24.637 24.031-3.575 1.388-11.9 3.908-18.5 5.6-16.859 4.322-26.778 9.259-33.768 16.81-13.918 15.033-14.151 37.792-.573 56.077l3.341 4.5.509-10c.401-7.865 1.03-11.062 2.948-14.974 4.82-9.833 13.993-16.249 33.687-23.565 20.211-7.507 33.297-20.81 37.835-38.461 1.905-7.408 3.22-25.5 1.854-25.5-.532 0-1.745 2.467-2.696 5.482M.37 127c0 5.775.165 8.137.367 5.25s.202-7.612 0-10.5S.37 121.225.37 127m177.287 32.431c-23.349 8.882-33.56 22.06-39.96 51.569-1.372 6.325-2.744 12.913-3.049 14.64l-.554 3.141 6.703-1.517c22.094-5 36.302-17.283 42.523-36.764 3.429-10.735 6.146-34.565 3.93-34.467-.412.018-4.73 1.547-9.593 3.398"/><path fill="#1976D2" fill-opacity=".219" fill-rule="evenodd" d="M101 3.501C87.957 6.408 81.828 8.552 71.008 13.994c-35.983 18.099-60.899 51.209-68.436 90.94-2.046 10.786-2.058 33.017-.024 44.681 5.428 31.126 23.955 60.864 49.914 80.116 8.326 6.174 23.197 14.045 33.538 17.75 37.346 13.38 79.052 8.156 112.566-14.099 50.678-33.653 70.777-98.199 47.985-154.103C233.022 46.095 203.974 18.912 170 7.641c-14.238-4.724-22.461-5.974-41-6.234-15.268-.215-18.839.052-28 2.094m14 10.791c-.275.268-2.381.745-4.68 1.059-14.385 1.965-33.19 9.089-45.415 17.206-9.022 5.99-21.312 17.564-28.025 26.392-7.243 9.525-16.385 28.607-19.427 40.551-3.156 12.39-4.187 29.436-2.542 42 5.024 38.359 28.928 71.705 63.447 88.506 12.938 6.298 19.448 7.812 23.442 5.453 1.575-.93 3.44-2.613 4.143-3.739s4.314-14.235 8.026-29.133c7.478-30.021 10.799-39.095 18.125-49.527 10.36-14.751 24.729-23.398 50.023-30.102 26.218-6.949 38.614-14.571 45.09-27.727 5.953-12.092 3.784-21.324-8.933-38.026-15.883-20.859-39.547-34.63-71.774-41.767-3.733-.826-30.817-1.812-31.5-1.146m27.978 23.399c-.057 7.327-7.765 16.94-17.294 21.566-2.851 1.385-11.934 4.644-20.184 7.244s-17.7 6.088-21 7.752c-7.721 3.894-19.011 15.246-23.305 23.433-6.469 12.335-8.802 28.976-6.012 42.871l1.183 5.891 1.804-7.338c2.555-10.397 5.451-15.727 12.326-22.69 7.635-7.731 16.095-11.9 36.504-17.986 8.525-2.542 18.111-6.005 21.303-7.695 7.493-3.969 14.927-12.12 17.778-19.492 2.969-7.678 3.259-22.339.593-29.985-2.123-6.088-3.665-7.577-3.696-3.571m35.029 29.902C170.633 70.791 167 76.201 167 83.982c0 6.405 1.846 10.869 5.909 14.288 10.922 9.19 26.436 3.444 29.532-10.936 1.623-7.541-4.674-17.889-12.27-20.165-5.088-1.524-7.897-1.426-12.164.424M155.203 79c-.52 3.814-6.322 13.917-10.226 17.805-5.911 5.888-17.634 11.218-34.477 15.678-7.7 2.038-16.925 5.118-20.5 6.843-16.891 8.151-26.235 25.962-23.029 43.898 1.266 7.084 6.129 17.997 10.328 23.175l2.35 2.899-.451-6.231c-1.284-17.755 9.04-31.559 29.201-39.044 15.878-5.895 24.6-10.896 32.193-18.459 11.32-11.275 15.896-23.198 15.185-39.564-.204-4.675-.462-7.825-.574-7m22.472 80.082c-21.958 8.74-30.373 18.034-37.524 41.444-3.371 11.033-6.75 27.208-5.869 28.089 1.148 1.148 16.981-3.644 23.691-7.17 18.626-9.788 28.205-27.579 29.717-55.195.339-6.187.435-11.212.213-11.165s-4.824 1.846-10.228 3.997"/><path fill="#1976D2" fill-opacity=".8" fill-rule="evenodd" d="M107 2.459C61.935 9.884 23.231 42.236 8.251 85c-5.501 15.706-6.694 22.977-6.724 41-.03 18.426.568 23.654 4.104 35.854 6.528 22.528 17.355 40.248 34.754 56.881C64.798 242.075 94.277 254 127.559 254c21.248 0 36.835-3.29 53.963-11.39 38.268-18.098 64.344-51.79 72.007-93.039 2.575-13.859 1.669-40.786-1.811-53.82C240.702 54.484 209.46 20.971 170 8.091c-5.225-1.705-12.65-3.798-16.5-4.65C143.585 1.248 117.675.7 107 2.459m-.345 13.075C66.133 23.178 33.927 51.003 19.67 90.688c-7.879 21.932-7.911 51.514-.08 73.447 10.396 29.116 33.625 54.854 60.864 67.439 13.878 6.412 21.391 6.641 25.244.768.991-1.511 5.057-15.582 9.035-31.268 7.856-30.981 11.167-39.532 19.649-50.744 9.167-12.118 24.75-21.117 45.618-26.345 21.347-5.348 32.907-10.902 41.247-19.818 5.992-6.406 8.857-12.217 9.496-19.265.449-4.955.099-6.642-2.549-12.302-4.138-8.841-8.31-14.78-16.133-22.964C196.956 33.833 180.669 24.403 157 17.758c-9.167-2.574-12.531-2.996-26.5-3.325-11.344-.268-18.283.052-23.845 1.101M178 67.722c-14.261 5.358-14.598 27.871-.498 33.291 4.203 1.616 11.815 1.391 15.384-.454 3.941-2.038 7.661-7.05 9.016-12.146 2.09-7.857-2.77-17.536-10.217-20.349-2.939-1.111-11.098-1.315-13.685-.342m-24.95 17.87c-5.32 12.837-17.516 20.761-41.55 26.998-7.7 1.998-16.82 4.908-20.266 6.466-8.518 3.851-17.176 12.247-20.865 20.232-2.608 5.648-2.869 7.211-2.869 17.212 0 10.32.199 11.421 3.227 17.814 1.775 3.747 4.25 8.247 5.5 10L78.5 187.5l.587-8.5c.711-10.29 3.336-16.788 9.211-22.801 5.812-5.948 12.01-9.723 21.828-13.295 24.51-8.916 37.483-20.324 42.936-37.754 1.846-5.901 3.965-25.15 2.769-25.15-.255 0-1.506 2.517-2.781 5.592M180 157.895c-12.441 4.642-18.163 8.061-25.103 15.002-6.956 6.955-10.344 12.589-13.944 23.191-2.667 7.852-7.975 32.785-7.092 33.316.351.211 4.014-.466 8.139-1.506 22.458-5.663 36.502-18.907 42.873-40.433 2.871-9.7 5.25-32.538 3.377-32.416-.412.026-4.125 1.307-8.25 2.846"/></svg>