<svg width="134" height="48" viewBox="0 0 134 48" fill="none" xmlns="http://www.w3.org/2000/svg">
<path fill-rule="evenodd" clip-rule="evenodd" d="M4.94323 27.2567L9.06338 20.0191L9.13593 19.8668L13.3393 27.2567H4.94323ZM17.9947 27.2567L11.3566 16H7.0818L9.12047 19.7657L8.90875 19.7752H4.7886L0 27.3697L2.14928 30.9641H15.5778L17.9947 27.2567ZM27.6754 27.5743V23.2816C31.2793 22.9807 31.2508 27.9251 27.6754 27.5743ZM32.9184 21.4808C31.585 20.1737 29.77 19.8109 27.4708 19.7241C27.4708 19.7241 24.3605 19.7835 23.5802 19.7835V30.9665C24.0418 30.9665 24.5363 30.9741 25.0469 30.9821L25.047 30.9821C27.2953 31.0169 29.8537 31.0565 31.2698 30.4681C34.5039 29.1205 35.6481 24.1618 32.9184 21.4808ZM92.2847 19.9144H96.2799C98.252 23.717 99.6745 25.607 99.6745 25.607V19.9144C100.325 19.9144 100.988 19.9183 101.651 19.9222L101.651 19.9222C102.315 19.926 102.98 19.9299 103.634 19.9299C103.634 21.1676 103.631 22.6492 103.628 24.2905L103.628 24.2969C103.623 26.3385 103.619 28.6271 103.619 31.0011H99.4759C99.3562 30.798 99.2169 30.5593 99.062 30.2938L99.0617 30.2933C98.3392 29.0553 97.276 27.2336 96.2645 25.7069C96.2645 26.0843 96.2675 26.8151 96.2708 27.6384L96.2708 27.6437L96.2709 27.6526L96.2709 27.6597L96.271 27.6683L96.271 27.6746L96.271 27.6817L96.271 27.6899C96.2758 28.8686 96.2813 30.2242 96.2799 31.0011H92.2847C92.2716 30.3651 92.28 28.7869 92.2896 26.966V26.9654V26.9646V26.9635C92.3028 24.4697 92.3184 21.5213 92.2847 19.9144ZM64.4202 19.7836H60.6152H60.6128L56.5712 30.9665H60.4653L62.5171 24.2951L64.5676 30.9665H68.4618L64.4202 19.7836ZM115.363 19.7836H119.171L123.213 30.9665H119.32L117.27 24.2951L115.218 30.9665H111.324L115.363 19.7836ZM42.6514 30.9666H35.0819V19.786H42.6538V22.7893H39.1248V23.8871H42.2517V26.7953H39.1497V27.9157H42.6514V30.9666ZM76.3464 27.5743V23.2816C79.9504 22.9807 79.923 27.9251 76.3464 27.5743ZM76.1418 19.7241C78.441 19.8109 80.256 20.1737 81.5882 21.4808C84.3191 24.1618 83.1725 29.1205 79.942 30.4681C78.525 31.0565 75.9673 31.0169 73.7187 30.9821L73.7185 30.9821C73.2078 30.9742 72.7131 30.9665 72.2512 30.9665V19.7835C73.0315 19.7835 76.1418 19.7241 76.1418 19.7241ZM91.3224 30.9666H83.753V19.786H91.3248V22.7893H87.7946V23.8871H90.9228V26.7953H87.8184V27.9157H91.3224V30.9666ZM43.597 19.7811V30.9641H51.0332V27.3447H47.6279V19.7811H43.597ZM123.75 30.9641V19.7811H127.777V27.3447H131.186V30.9641H123.75ZM49.7939 19.786V23.3887H51.9301V30.9677H56.124V23.3899H58.3042V19.786H49.7939ZM104.474 23.3887V19.786H112.983V23.3899H110.802V30.9677H106.611V23.3887H104.474ZM132.498 20.4399C132.472 20.4394 132.448 20.4389 132.425 20.4389H132.148V20.0143H132.587C132.767 20.0143 132.994 20.0441 132.994 20.2153C132.994 20.4495 132.706 20.4439 132.498 20.4399ZM132.921 21.4357H133.201L132.702 20.6721C132.996 20.6637 133.225 20.5448 133.225 20.2201C133.225 19.8633 132.935 19.7824 132.635 19.7824H131.915V21.4357H132.148V20.6721H132.425L132.921 21.4357ZM132.48 19.3411C133.175 19.3411 133.768 19.9049 133.768 20.6185C133.768 21.3322 133.175 21.896 132.48 21.896C131.788 21.896 131.195 21.3322 131.195 20.6185C131.195 19.9049 131.788 19.3411 132.48 19.3411ZM132.48 19.1068C131.632 19.1068 130.961 19.7788 130.961 20.6185C130.961 21.4595 131.632 22.1279 132.48 22.1279C133.329 22.1279 134 21.4595 134 20.6185C134 19.7788 133.329 19.1068 132.48 19.1068Z" fill="#757575"/>
</svg>
