<svg width="134" height="48" viewBox="0 0 134 48" fill="none" xmlns="http://www.w3.org/2000/svg">
<path fill-rule="evenodd" clip-rule="evenodd" d="M66.3644 0.00658001L66.3646 0.000971142L66.3646 0L66.3643 0.00102144V0.00102769C66.3628 0.00700088 66.3548 0.0391956 66.3173 0.102431C66.2671 0.187165 66.1822 0.296961 66.0534 0.430966C65.7961 0.698929 65.4108 1.01548 64.9205 1.36643C63.9434 2.06582 62.6145 2.85577 61.2296 3.61117C59.8476 4.36501 58.4229 5.07736 57.2611 5.62162C56.6801 5.89378 56.1675 6.12271 55.7605 6.29324C55.3423 6.46852 55.0647 6.56961 54.9385 6.60116C54.7175 6.6564 54.5607 6.85242 54.5553 7.08011C54.4404 11.905 56.6782 22.9893 66.6155 28.7861C66.7731 28.878 66.968 28.878 67.1255 28.7861C77.0629 22.9893 79.3007 11.905 79.1858 7.08011C79.1804 6.85242 79.0235 6.6564 78.8026 6.60116C78.6764 6.56961 78.3988 6.46852 77.9805 6.29324C77.5736 6.12271 77.0609 5.89378 76.48 5.62162C75.3182 5.07736 73.8935 4.36501 72.5114 3.61117C71.1265 2.85577 69.7976 2.06582 68.8205 1.36643C68.3302 1.01548 67.945 0.698929 67.6876 0.430966C67.5589 0.296961 67.4739 0.187165 67.4237 0.102431C67.3862 0.0391956 67.3782 0.00700087 67.3768 0.00102769V0.00102144L67.3765 0L67.3765 0.000971093L67.3766 0.00658001H66.3644ZM66.8705 1.03879C66.8422 1.0701 66.8132 1.10123 66.7835 1.13216C66.4636 1.46521 66.0211 1.82347 65.5097 2.18952C64.4834 2.92411 63.1131 3.73686 61.7143 4.4998C60.3128 5.2643 58.8695 5.98593 57.6905 6.53825C57.1011 6.81437 56.5752 7.04938 56.1518 7.22681C55.9334 7.31832 55.734 7.3981 55.5633 7.46074C55.5698 12.2097 57.8225 22.3205 66.8705 27.7607C75.9185 22.3205 78.1713 12.2097 78.1778 7.46074C78.0071 7.3981 77.8077 7.31832 77.5893 7.22681C77.1659 7.04938 76.64 6.81437 76.0505 6.53825C74.8716 5.98593 73.4283 5.2643 72.0267 4.4998C70.628 3.73686 69.2576 2.92411 68.2314 2.18952C67.72 1.82347 67.2775 1.46521 66.9576 1.13216C66.9279 1.10123 66.8988 1.0701 66.8705 1.03879ZM67.6122 14.0376C68.3634 13.7417 68.895 13.0096 68.895 12.1533C68.895 11.0352 67.9886 10.1288 66.8705 10.1288C65.7524 10.1288 64.8461 11.0352 64.8461 12.1533C64.8461 13.0096 65.3777 13.7417 66.1289 14.0376L65.5209 18.9015H68.2202L67.6122 14.0376ZM47.2376 34.5593V34.7386C47.2376 34.9846 47.2464 35.2412 47.2639 35.5083C47.2815 35.7719 47.3079 36.0495 47.343 36.3413L46.9581 36.4045C46.8879 35.8984 46.6489 35.5048 46.2412 35.2236C45.8335 34.9389 45.301 34.7966 44.6437 34.7966C43.7686 34.7966 43.092 35.0654 42.614 35.6032C42.1395 36.1374 41.9023 36.8966 41.9023 37.8807C41.9023 38.9316 42.1747 39.7821 42.7195 40.4323C43.2677 41.079 43.9777 41.4024 44.8493 41.4024C45.3976 41.4024 45.8721 41.2759 46.2728 41.0228C46.677 40.7697 46.9915 40.3989 47.2165 39.9104L47.5697 40.0844C47.4572 40.3128 47.3553 40.5466 47.2639 40.7856C47.1725 41.021 47.0917 41.2583 47.0214 41.4973C46.6418 41.6695 46.2552 41.7995 45.8616 41.8874C45.4679 41.9753 45.0725 42.0192 44.6754 42.0192C43.5085 42.0192 42.563 41.659 41.839 40.9384C41.1185 40.2144 40.7583 39.2637 40.7583 38.0863C40.7583 36.9264 41.1396 35.9828 41.9023 35.2552C42.665 34.5242 43.6508 34.1586 44.8599 34.1586C45.2184 34.1586 45.5962 34.192 45.9934 34.2588C46.394 34.3256 46.8088 34.4258 47.2376 34.5593ZM32.6288 35.3185C32.6007 35.0654 32.5866 34.8089 32.5866 34.5488C32.1965 34.4433 31.8661 34.3695 31.5955 34.3274C31.3249 34.2852 31.0578 34.2641 30.7942 34.2641C30.0737 34.2641 29.4744 34.4662 28.9964 34.8704C28.5184 35.2746 28.2794 35.7789 28.2794 36.3834C28.2794 36.8966 28.4323 37.3183 28.7381 37.6487C29.0439 37.9791 29.55 38.2585 30.2564 38.487C30.3373 38.5151 30.4497 38.552 30.5938 38.5977C31.6131 38.921 32.1227 39.3744 32.1227 39.9579C32.1227 40.3691 31.9593 40.7065 31.6324 40.9701C31.3056 41.2302 30.882 41.3602 30.3619 41.3602C29.7679 41.3602 29.3198 41.2267 29.0175 40.9595C28.7152 40.6924 28.5342 40.2707 28.4745 39.6943L28 39.805C28.0562 40.0475 28.0984 40.29 28.1265 40.5325C28.1546 40.775 28.1687 41.021 28.1687 41.2706C28.1687 41.362 28.1669 41.4323 28.1634 41.4815C28.1634 41.5272 28.1617 41.5676 28.1582 41.6027C28.485 41.7187 28.8066 41.8031 29.1229 41.8558C29.4428 41.912 29.7696 41.9401 30.1035 41.9401C30.9787 41.9401 31.6816 41.724 32.2123 41.2917C32.7431 40.8559 33.0084 40.2882 33.0084 39.5888C33.0084 39.1354 32.8749 38.7558 32.6077 38.4501C32.3406 38.1408 31.9241 37.8877 31.3583 37.6909C31.2704 37.6593 31.1439 37.6171 30.9787 37.5644C29.7415 37.1496 29.1229 36.6505 29.1229 36.0671C29.1229 35.7121 29.267 35.4222 29.5552 35.1972C29.847 34.9723 30.2248 34.8598 30.6887 34.8598C31.1913 34.8598 31.5797 34.9653 31.8538 35.1761C32.1315 35.387 32.3002 35.7104 32.36 36.1462L32.7712 36.0671C32.7079 35.8211 32.6605 35.5715 32.6288 35.3185ZM35.6391 34.3695C35.1541 34.359 34.6041 34.3432 33.989 34.3221V34.6753H34.0312C34.3194 34.6753 34.5197 34.7333 34.6322 34.8493C34.7447 34.9653 34.8009 35.1744 34.8009 35.4766C34.8009 35.8176 34.7991 36.1339 34.7956 36.4256C34.7956 36.7173 34.7939 37.0178 34.7903 37.3271L34.7693 38.7664C34.7657 38.9527 34.7622 39.211 34.7587 39.5414C34.7517 40.8559 34.5144 41.5131 34.047 41.5131H33.9416C33.9205 41.5096 33.8976 41.5061 33.873 41.5026V41.8452L34.0628 41.84C35.2262 41.8013 36.0697 41.782 36.5934 41.782C36.9765 41.782 37.4053 41.7872 37.8797 41.7978C38.3542 41.8083 38.8674 41.8241 39.4192 41.8452C39.4789 41.5676 39.5492 41.2882 39.6301 41.007C39.7109 40.7258 39.804 40.4394 39.9095 40.1476L39.5299 40.0211C39.3647 40.5061 39.1415 40.8348 38.8603 41.007C38.5827 41.1757 38.0028 41.26 37.1206 41.26C36.8535 41.26 36.6074 41.2548 36.3825 41.2442C36.1611 41.2337 35.9625 41.2179 35.7868 41.1968C35.7762 40.8594 35.7692 40.5659 35.7657 40.3164C35.7622 40.0633 35.7604 39.8208 35.7604 39.5888C35.7604 39.4553 35.7622 39.2373 35.7657 38.9351C35.7692 38.6293 35.7709 38.3903 35.7709 38.2181H37.0889C37.7286 38.2181 38.1346 38.2708 38.3068 38.3763C38.4825 38.4817 38.5704 38.6838 38.5704 38.9825V39.0247L38.9131 39.0142L38.8972 38.7664C38.8797 38.4641 38.8709 38.2673 38.8709 38.1759C38.8709 38.0178 38.8762 37.8455 38.8867 37.6593C38.9008 37.473 38.9201 37.2709 38.9447 37.053L38.6126 37.0213C38.5985 37.2779 38.5089 37.4537 38.3437 37.5485C38.182 37.6434 37.8464 37.6909 37.3367 37.6909C37.2313 37.6909 37.0222 37.6891 36.7094 37.6856C36.4001 37.6786 36.1417 37.6751 35.9344 37.6751H35.7709C35.7745 37.4923 35.7832 37.0952 35.7973 36.4836C35.8114 35.872 35.8219 35.3554 35.8289 34.9336C35.8781 34.9336 35.9555 34.9319 36.0609 34.9284C36.5846 34.9178 36.9448 34.9125 37.1417 34.9125C37.9114 34.9125 38.4122 34.9881 38.6442 35.1392C38.8762 35.2869 39.0062 35.5715 39.0343 35.9933L39.3875 35.9617C39.3629 35.684 39.3419 35.4081 39.3243 35.134C39.3067 34.8563 39.2962 34.5857 39.2926 34.3221C38.8814 34.3432 38.4755 34.359 38.0748 34.3695C37.6777 34.3801 37.284 34.3853 36.8939 34.3853C36.5424 34.3853 36.1242 34.3801 35.6391 34.3695ZM51.1019 34.6858V34.3221C50.8629 34.3361 50.6275 34.3467 50.3955 34.3537C50.1635 34.3607 49.9351 34.3643 49.7101 34.3643C49.5239 34.3643 49.3183 34.3607 49.0933 34.3537C48.8684 34.3467 48.6311 34.3361 48.3816 34.3221V34.6858H48.4765C48.7682 34.6858 48.9633 34.7561 49.0617 34.8967C49.1636 35.0373 49.2146 35.4099 49.2146 36.0144V36.1778C49.2146 36.5012 49.2111 36.9511 49.204 37.5275C49.197 38.1003 49.1935 38.5133 49.1935 38.7664C49.1935 39.4201 49.255 39.9297 49.378 40.2953C49.501 40.6573 49.7084 40.9718 50.0001 41.239C50.2672 41.492 50.5906 41.6853 50.9701 41.8189C51.3532 41.9524 51.7715 42.0192 52.2249 42.0192C52.8786 42.0192 53.4462 41.8857 53.9277 41.6185C54.4093 41.3514 54.7484 40.9841 54.9452 40.5167C55.0401 40.2917 55.1087 40.0334 55.1509 39.7417C55.193 39.4465 55.2141 39.0212 55.2141 38.4659V37.9387C55.2141 36.9686 55.2229 36.2674 55.2405 35.8351C55.258 35.3993 55.2862 35.1305 55.3248 35.0285C55.3705 34.9055 55.4443 34.8176 55.5463 34.7649C55.6517 34.7122 55.8081 34.6858 56.0155 34.6858H56.0787V34.3221C56.0401 34.3221 55.9786 34.3238 55.8942 34.3274C55.4092 34.352 55.0647 34.3643 54.8609 34.3643C54.6535 34.3643 54.3073 34.352 53.8223 34.3274C53.7415 34.3238 53.68 34.3221 53.6378 34.3221V34.6858H53.7169C53.9488 34.6858 54.1158 34.7175 54.2177 34.7807C54.3231 34.844 54.4005 34.9565 54.4497 35.1182C54.4813 35.2412 54.5059 35.5961 54.5235 36.1831C54.5446 36.7665 54.5551 37.487 54.5551 38.3446C54.5551 39.0581 54.5165 39.5677 54.4391 39.8735C54.3618 40.1793 54.2282 40.4376 54.0385 40.6485C53.8487 40.8594 53.6202 41.0158 53.3531 41.1177C53.086 41.2196 52.7749 41.2706 52.42 41.2706C51.9455 41.2706 51.5395 41.1722 51.2021 40.9754C50.8682 40.775 50.6152 40.4851 50.4429 40.1055C50.3621 39.9297 50.3041 39.7066 50.269 39.4359C50.2338 39.1653 50.2162 38.7453 50.2162 38.1759V36.2516C50.2162 35.5663 50.2655 35.1322 50.3639 34.9494C50.4623 34.7667 50.6503 34.6753 50.928 34.6753C50.9455 34.6753 50.9737 34.6771 51.0123 34.6806C51.051 34.6841 51.0809 34.6858 51.1019 34.6858ZM58.7253 38.1285C58.894 38.146 59.0521 38.1583 59.1998 38.1654C59.3509 38.1724 59.4844 38.1759 59.6004 38.1759C59.6988 38.1759 59.8113 38.1742 59.9378 38.1706C60.0644 38.1636 60.2014 38.1531 60.3491 38.139C60.6865 37.9352 60.9342 37.6997 61.0924 37.4326C61.2506 37.1619 61.3296 36.8403 61.3296 36.4678C61.3296 35.9792 61.1715 35.5874 60.8552 35.2921C60.5388 34.9969 60.1136 34.8493 59.5793 34.8493C59.4352 34.8493 59.2947 34.8563 59.1576 34.8704C59.0205 34.8809 58.8852 34.8985 58.7516 34.9231C58.7411 35.3589 58.7341 35.807 58.7305 36.2674C58.727 36.7279 58.7253 37.3482 58.7253 38.1285ZM56.8484 41.5026L56.8809 41.5074L56.917 41.5131H57.0224C57.4899 41.5131 57.7271 40.8559 57.7341 39.5414C57.7376 39.211 57.7412 38.9527 57.7447 38.7664L57.7658 37.3271C57.7693 37.0178 57.771 36.7173 57.771 36.4256C57.7746 36.1339 57.7763 35.8176 57.7763 35.4766C57.7763 35.1744 57.7201 34.9653 57.6076 34.8493C57.4951 34.7333 57.2948 34.6753 57.0066 34.6753H56.9644V34.3063C57.1999 34.3238 57.4319 34.3361 57.6603 34.3432C57.8923 34.3502 58.1172 34.3537 58.3351 34.3537C58.5706 34.3537 58.8623 34.3467 59.2103 34.3326C59.5618 34.315 59.7955 34.3063 59.9115 34.3063C60.632 34.3063 61.2225 34.4961 61.6829 34.8756C62.1433 35.2552 62.3735 35.7315 62.3735 36.3044C62.3735 36.7296 62.2575 37.1092 62.0256 37.4431C61.7971 37.7735 61.4527 38.0564 60.9922 38.2919L61.9781 39.7839C62.0133 39.8401 62.066 39.921 62.1363 40.0264C62.8181 41.0667 63.3769 41.5869 63.8128 41.5869H63.8655V41.8874C63.8163 41.8909 63.7425 41.898 63.6441 41.9085C63.4156 41.9296 63.2487 41.9401 63.1432 41.9401C62.7707 41.9401 62.4754 41.8909 62.2575 41.7925C62.0431 41.6906 61.8305 41.4955 61.6196 41.2073C61.5845 41.1616 61.3894 40.8488 61.0344 40.2689C60.6829 39.689 60.328 39.1425 59.9695 38.6293C59.8359 38.6434 59.6936 38.6539 59.5424 38.6609C59.3913 38.668 59.2244 38.6715 59.0416 38.6715H58.7253V40.29C58.7253 40.8172 58.7798 41.1511 58.8887 41.2917C58.9977 41.4287 59.2138 41.4973 59.5372 41.4973C59.5477 41.4973 59.5618 41.4955 59.5793 41.492C59.5969 41.4885 59.611 41.4867 59.6215 41.4867L59.6297 41.487C59.6328 41.4871 59.6356 41.4874 59.6382 41.4878L59.6409 41.4882L59.645 41.4891L59.648 41.4899L59.6501 41.4907L59.6531 41.492C59.6637 41.4955 59.6707 41.4973 59.6742 41.4973V41.8452C59.4247 41.8312 59.1769 41.8206 58.9309 41.8136C58.6849 41.8066 58.4406 41.8031 58.1981 41.8031C58.068 41.8031 57.8853 41.8066 57.6498 41.8136C57.4143 41.8206 57.1472 41.8312 56.8484 41.8452V41.5026ZM66.2063 34.3695C65.7212 34.359 65.1712 34.3432 64.5561 34.3221V34.6753H64.5983C64.8865 34.6753 65.0868 34.7333 65.1993 34.8493C65.3118 34.9653 65.368 35.1744 65.368 35.4766C65.368 35.8176 65.3662 36.1339 65.3627 36.4256C65.3627 36.7173 65.361 37.0178 65.3575 37.3271L65.3364 38.7664C65.3329 38.9527 65.3293 39.211 65.3258 39.5414C65.3188 40.8559 65.0816 41.5131 64.6141 41.5131H64.5087C64.4876 41.5096 64.4647 41.5061 64.4401 41.5026V41.8452L64.6299 41.84C65.7933 41.8013 66.6368 41.782 67.1605 41.782C67.5436 41.782 67.9724 41.7872 68.4469 41.7978C68.9213 41.8083 69.4345 41.8241 69.9863 41.8452C70.046 41.5676 70.1163 41.2882 70.1972 41.007C70.278 40.7258 70.3711 40.4394 70.4766 40.1476L70.097 40.0211C69.9318 40.5061 69.7086 40.8348 69.4275 41.007C69.1498 41.1757 68.5699 41.26 67.6877 41.26C67.4206 41.26 67.1745 41.2548 66.9496 41.2442C66.7282 41.2337 66.5296 41.2179 66.3539 41.1968C66.3433 40.8594 66.3363 40.5659 66.3328 40.3164C66.3293 40.0633 66.3275 39.8208 66.3275 39.5888C66.3275 39.4553 66.3293 39.2373 66.3328 38.9351C66.3363 38.6293 66.3381 38.3903 66.3381 38.2181H67.6561C68.2957 38.2181 68.7017 38.2708 68.8739 38.3763C69.0496 38.4817 69.1375 38.6838 69.1375 38.9825V39.0247L69.4802 39.0142L69.4644 38.7664C69.4468 38.4641 69.438 38.2673 69.438 38.1759C69.438 38.0178 69.4433 37.8455 69.4538 37.6593C69.4679 37.473 69.4872 37.2709 69.5118 37.053L69.1797 37.0213C69.1656 37.2779 69.076 37.4537 68.9108 37.5485C68.7491 37.6434 68.4135 37.6909 67.9038 37.6909C67.7984 37.6909 67.5893 37.6891 67.2765 37.6856C66.9672 37.6786 66.7089 37.6751 66.5015 37.6751H66.3381C66.3416 37.4923 66.3504 37.0952 66.3644 36.4836C66.3785 35.872 66.389 35.3554 66.396 34.9336C66.4453 34.9336 66.5226 34.9319 66.628 34.9284C67.1517 34.9178 67.512 34.9125 67.7088 34.9125C68.4785 34.9125 68.9793 34.9881 69.2113 35.1392C69.4433 35.2869 69.5733 35.5715 69.6014 35.9933L69.9547 35.9617C69.9301 35.684 69.909 35.4081 69.8914 35.134C69.8738 34.8563 69.8633 34.5857 69.8598 34.3221C69.4485 34.3432 69.0426 34.359 68.6419 34.3695C68.2448 34.3801 67.8511 34.3853 67.461 34.3853C67.1095 34.3853 66.6913 34.3801 66.2063 34.3695ZM77.8047 34.5593V34.7386C77.8047 34.9846 77.8135 35.2412 77.831 35.5083C77.8486 35.7719 77.875 36.0495 77.9101 36.3413L77.5253 36.4045C77.455 35.8984 77.216 35.5048 76.8083 35.2236C76.4006 34.9389 75.8681 34.7966 75.2108 34.7966C74.3357 34.7966 73.6591 35.0654 73.1811 35.6032C72.7066 36.1374 72.4694 36.8966 72.4694 37.8807C72.4694 38.9316 72.7418 39.7821 73.2866 40.4323C73.8349 41.079 74.5448 41.4024 75.4165 41.4024C75.9647 41.4024 76.4392 41.2759 76.8399 41.0228C77.2441 40.7697 77.5587 40.3989 77.7836 39.9104L78.1368 40.0844C78.0243 40.3128 77.9224 40.5466 77.831 40.7856C77.7397 41.021 77.6588 41.2583 77.5885 41.4973C77.2089 41.6695 76.8223 41.7995 76.4287 41.8874C76.035 41.9753 75.6396 42.0192 75.2425 42.0192C74.0756 42.0192 73.1302 41.659 72.4061 40.9384C71.6856 40.2144 71.3254 39.2637 71.3254 38.0863C71.3254 36.9264 71.7067 35.9828 72.4694 35.2552C73.2321 34.5242 74.218 34.1586 75.427 34.1586C75.7855 34.1586 76.1633 34.192 76.5605 34.2588C76.9612 34.3256 77.3759 34.4258 77.8047 34.5593ZM79.3441 34.3537C79.1157 34.3467 78.8714 34.3361 78.6113 34.3221L78.6166 34.6858L78.7273 34.67C78.7554 34.6665 78.7782 34.6648 78.7958 34.6648C79.0524 34.6648 79.3371 34.9284 79.6499 35.4556C79.6991 35.5434 79.7395 35.6102 79.7711 35.6559L81.474 38.5291L81.4529 40.4007C81.4459 40.8436 81.3879 41.1353 81.2789 41.2759C81.17 41.4164 80.9626 41.4867 80.6568 41.4867C80.6357 41.4867 80.6006 41.485 80.5514 41.4815C80.5022 41.478 80.4653 41.4762 80.4407 41.4762V41.8452C80.7465 41.8312 81.0294 41.8206 81.2895 41.8136C81.5531 41.8066 81.7727 41.8031 81.9485 41.8031C82.1558 41.8031 82.3896 41.8066 82.6497 41.8136C82.9133 41.8206 83.1909 41.8312 83.4826 41.8452V41.4762H83.2981C82.9853 41.4762 82.7762 41.4164 82.6707 41.2969C82.5653 41.1739 82.5091 40.8682 82.502 40.3796L82.4809 38.4975L83.8095 36.4678C83.9009 36.3237 84.0239 36.1269 84.1785 35.8773C84.6776 35.076 85.0836 34.6753 85.3964 34.6753H85.4596C85.4807 34.6753 85.4965 34.6771 85.5071 34.6806C85.5176 34.6806 85.5264 34.6823 85.5334 34.6858V34.3221C85.3366 34.3361 85.1451 34.3467 84.9588 34.3537C84.7725 34.3607 84.5898 34.3643 84.4105 34.3643C84.2664 34.3643 84.0995 34.3607 83.9097 34.3537C83.7199 34.3467 83.5195 34.3361 83.3087 34.3221V34.6858H83.3983C83.5916 34.6858 83.7304 34.7069 83.8148 34.7491C83.9026 34.7878 83.9466 34.8493 83.9466 34.9336C83.9466 35.0145 83.8025 35.3062 83.5143 35.8088C83.2261 36.3114 82.7938 37.0249 82.2174 37.9492L80.9468 35.6823C80.9187 35.6331 80.8818 35.5698 80.8361 35.4925C80.6639 35.1972 80.5778 35.0074 80.5778 34.9231C80.5778 34.8458 80.6287 34.7878 80.7306 34.7491C80.8326 34.7069 80.9802 34.6858 81.1735 34.6858H81.2473V34.3221C81.0083 34.3361 80.7799 34.3467 80.5619 34.3537C80.344 34.3607 80.1402 34.3643 79.9504 34.3643C79.7747 34.3643 79.5726 34.3607 79.3441 34.3537ZM87.89 37.6962C87.9709 37.7032 88.057 37.7085 88.1484 37.712H88.5701C88.7705 37.712 88.955 37.7085 89.1237 37.7014C89.2959 37.6944 89.4611 37.6821 89.6193 37.6645C89.8758 37.4818 90.0691 37.2762 90.1992 37.0477C90.3292 36.8157 90.3942 36.5609 90.3942 36.2833C90.3942 35.8369 90.2519 35.4854 89.9672 35.2289C89.6825 34.9688 89.2924 34.8387 88.7968 34.8387C88.6879 34.8387 88.5613 34.8458 88.4172 34.8598C88.2766 34.8739 88.1167 34.895 87.9375 34.9231C87.9269 35.3941 87.9164 35.9406 87.9058 36.5627C87.8988 37.1848 87.8935 37.5626 87.89 37.6962ZM87.9006 41.1599C88.1044 41.2196 88.3048 41.2653 88.5016 41.2969C88.6984 41.3251 88.89 41.3391 89.0762 41.3391C89.6526 41.3391 90.099 41.1985 90.4153 40.9174C90.7316 40.6362 90.8898 40.2443 90.8898 39.7417C90.8898 39.2075 90.7123 38.8121 90.3573 38.5555C90.0023 38.2954 89.4576 38.1654 88.723 38.1654C88.6035 38.1654 88.4823 38.1671 88.3592 38.1706C88.2397 38.1706 88.0833 38.1759 87.89 38.1865C87.89 38.3341 87.8883 38.552 87.8848 38.8402C87.8812 39.1249 87.8795 39.334 87.8795 39.4676C87.8795 39.6855 87.8812 39.9174 87.8848 40.1635C87.8883 40.406 87.8935 40.7381 87.9006 41.1599ZM86.0343 41.5026C86.0589 41.5061 86.0817 41.5096 86.1028 41.5131H86.2083C86.6757 41.5131 86.913 40.8559 86.92 39.5414C86.9235 39.211 86.927 38.9527 86.9305 38.7664L86.9516 37.3271C86.9551 37.0178 86.9569 36.7173 86.9569 36.4256C86.9604 36.1339 86.9622 35.8176 86.9622 35.4766C86.9622 35.1744 86.9059 34.9653 86.7935 34.8493C86.681 34.7333 86.4806 34.6753 86.1924 34.6753H86.1503V34.3063C86.3752 34.3238 86.5949 34.3361 86.8093 34.3432C87.0272 34.3502 87.2468 34.3537 87.4683 34.3537C87.7143 34.3537 88.0166 34.3467 88.3751 34.3326C88.7336 34.315 88.9673 34.3063 89.0762 34.3063C89.8003 34.3063 90.3714 34.4679 90.7896 34.7913C91.2114 35.1111 91.4223 35.5434 91.4223 36.0882C91.4223 36.4713 91.3186 36.8034 91.1112 37.0846C90.9074 37.3623 90.5682 37.6311 90.0937 37.8912C90.7123 38.0107 91.1745 38.2216 91.4803 38.5239C91.786 38.8261 91.9389 39.225 91.9389 39.7206C91.9389 40.3638 91.6841 40.8822 91.1745 41.2759C90.6649 41.6695 89.9848 41.8663 89.1342 41.8663C88.9796 41.8663 88.6896 41.8575 88.2643 41.84C87.8391 41.8224 87.4876 41.8136 87.2099 41.8136C87.094 41.8136 86.9323 41.8171 86.7249 41.8241C86.5211 41.8312 86.2909 41.8417 86.0343 41.8558V41.5026ZM94.5169 34.3695C94.0319 34.359 93.4819 34.3432 92.8668 34.3221V34.6753H92.909C93.1972 34.6753 93.3975 34.7333 93.51 34.8493C93.6225 34.9653 93.6787 35.1744 93.6787 35.4766C93.6787 35.8176 93.6769 36.1339 93.6734 36.4256C93.6734 36.7173 93.6717 37.0178 93.6682 37.3271L93.6471 38.7664C93.6436 38.9527 93.64 39.211 93.6365 39.5414C93.6295 40.8559 93.3923 41.5131 92.9248 41.5131H92.8194C92.7983 41.5096 92.7754 41.5061 92.7508 41.5026V41.8452L92.9406 41.84C94.104 41.8013 94.9475 41.782 95.4712 41.782C95.8543 41.782 96.2831 41.7872 96.7576 41.7978C97.232 41.8083 97.7452 41.8241 98.297 41.8452C98.3567 41.5676 98.427 41.2882 98.5079 41.007C98.5887 40.7258 98.6818 40.4394 98.7873 40.1476L98.4077 40.0211C98.2425 40.5061 98.0193 40.8348 97.7381 41.007C97.4605 41.1757 96.8806 41.26 95.9984 41.26C95.7313 41.26 95.4852 41.2548 95.2603 41.2442C95.0389 41.2337 94.8403 41.2179 94.6646 41.1968C94.654 40.8594 94.647 40.5659 94.6435 40.3164C94.64 40.0633 94.6382 39.8208 94.6382 39.5888C94.6382 39.4553 94.64 39.2373 94.6435 38.9351C94.647 38.6293 94.6488 38.3903 94.6488 38.2181H95.9668C96.6064 38.2181 97.0124 38.2708 97.1846 38.3763C97.3603 38.4817 97.4482 38.6838 97.4482 38.9825V39.0247L97.7909 39.0142L97.775 38.7664C97.7575 38.4641 97.7487 38.2673 97.7487 38.1759C97.7487 38.0178 97.754 37.8455 97.7645 37.6593C97.7786 37.473 97.7979 37.2709 97.8225 37.053L97.4904 37.0213C97.4763 37.2779 97.3867 37.4537 97.2215 37.5485C97.0598 37.6434 96.7242 37.6909 96.2145 37.6909C96.1091 37.6909 95.9 37.6891 95.5872 37.6856C95.2779 37.6786 95.0195 37.6751 94.8122 37.6751H94.6488C94.6523 37.4923 94.661 37.0952 94.6751 36.4836C94.6892 35.872 94.6997 35.3554 94.7067 34.9336C94.7559 34.9336 94.8333 34.9319 94.9387 34.9284C95.4624 34.9178 95.8226 34.9125 96.0195 34.9125C96.7892 34.9125 97.29 34.9881 97.522 35.1392C97.754 35.2869 97.884 35.5715 97.9121 35.9933L98.2654 35.9617C98.2407 35.684 98.2197 35.4081 98.2021 35.134C98.1845 34.8563 98.174 34.5857 98.1704 34.3221C97.7592 34.3432 97.3533 34.359 96.9526 34.3695C96.5555 34.3801 96.1618 34.3853 95.7717 34.3853C95.4202 34.3853 95.002 34.3801 94.5169 34.3695ZM101.471 38.1285C101.639 38.146 101.798 38.1583 101.945 38.1654C102.096 38.1724 102.23 38.1759 102.346 38.1759C102.444 38.1759 102.557 38.1742 102.683 38.1706C102.81 38.1636 102.947 38.1531 103.095 38.139C103.432 37.9352 103.68 37.6997 103.838 37.4326C103.996 37.1619 104.075 36.8403 104.075 36.4678C104.075 35.9792 103.917 35.5874 103.601 35.2921C103.284 34.9969 102.859 34.8493 102.325 34.8493C102.181 34.8493 102.04 34.8563 101.903 34.8704C101.766 34.8809 101.631 34.8985 101.497 34.9231C101.487 35.3589 101.48 35.807 101.476 36.2674C101.472 36.7279 101.471 37.3482 101.471 38.1285ZM99.5939 41.5026L99.6279 41.5076L99.6624 41.5131H99.7679C100.235 41.5131 100.473 40.8559 100.48 39.5414C100.483 39.211 100.487 38.9527 100.49 38.7664L100.511 37.3271C100.515 37.0178 100.516 36.7173 100.516 36.4256C100.52 36.1339 100.522 35.8176 100.522 35.4766C100.522 35.1744 100.466 34.9653 100.353 34.8493C100.241 34.7333 100.04 34.6753 99.7521 34.6753H99.7099V34.3063C99.9454 34.3238 100.177 34.3361 100.406 34.3432C100.638 34.3502 100.863 34.3537 101.081 34.3537C101.316 34.3537 101.608 34.3467 101.956 34.3326C102.307 34.315 102.541 34.3063 102.657 34.3063C103.377 34.3063 103.968 34.4961 104.428 34.8756C104.889 35.2552 105.119 35.7315 105.119 36.3044C105.119 36.7296 105.003 37.1092 104.771 37.4431C104.543 37.7735 104.198 38.0564 103.738 38.2919L104.724 39.7839C104.759 39.8401 104.811 39.921 104.882 40.0264C105.564 41.0667 106.122 41.5869 106.558 41.5869H106.611V41.8874C106.562 41.8909 106.488 41.898 106.39 41.9085C106.161 41.9296 105.994 41.9401 105.889 41.9401C105.516 41.9401 105.221 41.8909 105.003 41.7925C104.789 41.6906 104.576 41.4955 104.365 41.2073C104.33 41.1616 104.135 40.8488 103.78 40.2689C103.428 39.689 103.073 39.1425 102.715 38.6293C102.581 38.6434 102.439 38.6539 102.288 38.6609C102.137 38.668 101.97 38.6715 101.787 38.6715H101.471V40.29C101.471 40.8172 101.525 41.1511 101.634 41.2917C101.743 41.4287 101.959 41.4973 102.283 41.4973C102.293 41.4973 102.307 41.4955 102.325 41.492C102.342 41.4885 102.356 41.4867 102.367 41.4867C102.381 41.4867 102.392 41.4885 102.399 41.492C102.409 41.4955 102.416 41.4973 102.42 41.4973V41.8452C102.17 41.8312 101.922 41.8206 101.676 41.8136C101.43 41.8066 101.186 41.8031 100.944 41.8031C100.813 41.8031 100.631 41.8066 100.395 41.8136C100.16 41.8206 99.8926 41.8312 99.5939 41.8452V41.5026ZM28.3622 47.9186H29.7222C30.1991 47.9186 30.5518 47.7223 30.7802 47.3296C30.9487 47.0383 31.0329 46.6828 31.0329 46.263C31.0329 46.0974 31.013 45.9232 30.973 45.7404C30.933 45.5577 30.858 45.3878 30.7481 45.2307C30.611 45.0365 30.4318 44.903 30.2105 44.8302C30.0806 44.7873 29.9178 44.7645 29.7222 44.7616H28.3622V47.9186ZM29.6108 45.3099C29.9107 45.3099 30.1113 45.3956 30.2127 45.5669C30.3126 45.7397 30.3626 45.9867 30.3626 46.308C30.3626 46.5407 30.329 46.7413 30.2619 46.9098C30.1391 47.2168 29.9221 47.3703 29.6108 47.3703H29.0026V45.3099H29.6108ZM43.3354 46.5393H41.8019V47.351H43.5496V47.9186H41.1573V44.7616H43.4725V45.3206H41.8019V45.991H43.3354V46.5393ZM54.325 45.3206H55.9078V44.7659H53.6697V47.9186H54.325V46.595H55.7107V46.0467H54.325V45.3206ZM68.1546 46.5393H66.6211V47.351H68.3688V47.9186H65.9764V44.7616H68.2917V45.3206H66.6211V45.991H68.1546V46.5393ZM80.3821 47.9186H81.0418V44.7616H80.4271V46.9655L79.1699 44.7616H78.4781V47.9186H79.0928V45.6762L80.3821 47.9186ZM92.4105 47.4624C92.5661 47.4624 92.6925 47.4453 92.7896 47.411C92.9738 47.3453 93.0658 47.2232 93.0658 47.0448C93.0658 46.9405 93.0202 46.8598 92.9288 46.8027C92.8374 46.7471 92.6939 46.6978 92.4983 46.655L92.1642 46.58C91.8358 46.5057 91.6087 46.4251 91.4831 46.338C91.2703 46.1923 91.164 45.9646 91.164 45.6548C91.164 45.372 91.2668 45.1372 91.4724 44.9501C91.678 44.7631 91.98 44.6695 92.3783 44.6695C92.711 44.6695 92.9945 44.7581 93.2286 44.9351C93.4642 45.1108 93.5877 45.3663 93.5991 45.7019H92.9652C92.9538 45.512 92.8709 45.377 92.7167 45.2971C92.6139 45.2443 92.4861 45.2178 92.3334 45.2178C92.1635 45.2178 92.0278 45.2521 91.9264 45.3206C91.8251 45.3892 91.7744 45.4848 91.7744 45.6076C91.7744 45.7204 91.8243 45.8047 91.9243 45.8604C91.9885 45.8975 92.1256 45.941 92.3355 45.991L92.8795 46.1217C93.118 46.1788 93.2979 46.2552 93.4192 46.3508C93.6077 46.4993 93.702 46.7142 93.702 46.9955C93.702 47.2839 93.5913 47.5238 93.37 47.7151C93.1501 47.905 92.8388 48 92.4362 48C92.025 48 91.7015 47.9065 91.466 47.7194C91.2304 47.5309 91.1126 47.2725 91.1126 46.9441H91.7422C91.7622 47.0883 91.8015 47.1961 91.86 47.2675C91.9671 47.3974 92.1506 47.4624 92.4105 47.4624ZM104.46 46.5393H105.994V45.991H104.46V45.3206H106.131V44.7616H103.816V47.9186H106.208V47.351H104.46V46.5393Z" fill="#757575"/>
</svg>
