<svg width="134" height="48" viewBox="0 0 134 48" fill="none" xmlns="http://www.w3.org/2000/svg">
<path d="M60.2627 17.7094C58.9548 17.6878 57.9311 18.0433 57.6486 18.9672C57.0644 20.8762 60.8434 22.9248 62.6245 23.9013C63.0072 24.11 63.1712 23.9798 62.9289 23.7004C61.8033 22.4071 60.2023 19.8603 62.4618 18.3656C62.5717 18.2932 62.7057 18.211 62.8258 18.1411L62.8618 18.1213L62.8258 18.1149C61.935 17.8711 61.0474 17.7224 60.2627 17.7094ZM72.4149 23.3655C72.2188 23.3271 72.1708 23.4524 72.354 23.6619C73.4776 24.955 75.0814 27.5012 72.8199 28.9967V28.9955C72.712 29.0678 72.5805 29.1505 72.4583 29.2212L72.4211 29.2423L72.4583 29.2474C74.8318 29.8975 77.1811 29.8731 77.633 28.394C78.2173 26.4849 74.4403 24.4367 72.6571 23.4611C72.562 23.4089 72.4802 23.3783 72.4149 23.3655Z" fill="#757575"/>
<path d="M120.042 15.2498C119.324 15.2498 118.741 15.8312 118.741 16.5472C118.741 17.2633 119.324 17.8446 120.042 17.8446C120.759 17.8446 121.339 17.2633 121.339 16.5472C121.339 15.8312 120.759 15.2498 120.042 15.2498ZM93.2864 16.4715V18.9522H91.2873V20.6243H93.2864V25.8871C93.2864 27.0922 93.5242 29.2895 96.5776 29.2895C97.343 29.2895 97.8333 29.2368 98.5071 29.1456V27.4029C98.5071 27.4029 97.8114 27.5802 97.1926 27.5802C95.5784 27.5802 95.2258 26.9193 95.2258 25.6601V20.6243H98.4176V18.9522H95.2258V16.4715H93.2864ZM104.504 18.7426C101.296 18.7426 98.8947 20.8256 98.8947 24.07V24.1519C98.8947 27.3162 101.309 29.3589 104.812 29.3589C106.496 29.3589 108.069 28.9388 109.513 27.5567L108.089 26.3089C108.089 26.3089 106.868 27.5815 104.81 27.5815C102.899 27.5815 101.046 26.3728 100.958 24.7708L109.838 24.7336C109.883 24.3326 109.883 23.8914 109.883 23.8914C109.883 21.0678 107.692 18.7426 104.504 18.7426ZM127.876 18.8059C125.683 18.8059 122.523 20.1301 122.523 24.0303C122.523 27.8937 125.366 29.3378 127.853 29.3378C130.333 29.3378 131.576 27.9623 131.576 27.9623L131.676 29.3353H133.494V18.9436H131.68L131.576 20.2323C131.576 20.2323 130.369 18.8059 127.876 18.8059ZM85.2839 18.8133C83.1893 18.8133 80.9404 19.6044 80.9404 21.7232C80.9404 23.5577 82.6115 24.1283 85.3697 24.6467C87.2119 24.992 88.9119 25.1677 88.9119 26.16C88.9119 26.7855 88.0753 27.5877 85.9847 27.5877C84.5008 27.5877 83.0024 27.2765 82.5444 26.2208L80.7578 26.9699C81.4906 28.5996 83.4344 29.4432 85.6878 29.4432C90.1885 29.4432 91.0575 27.3073 91.0575 26.0943C91.0575 24.074 89.0437 23.4941 87.0346 23.136C85.0356 22.7795 83.07 22.5308 83.07 21.6004C83.07 20.9946 83.6746 20.4593 85.4231 20.4593C86.7239 20.4593 88.224 20.7611 88.6311 21.681L90.4736 20.907C89.7692 19.4932 87.6819 18.8133 85.2839 18.8133ZM116.889 18.9324C115.298 18.9178 114.127 19.3987 113.186 20.3774L113.082 18.9473H111.2V29.3291H113.186V23.9484C113.186 22.4482 114.397 20.5461 117.597 20.7247V18.9684C117.352 18.946 117.116 18.9345 116.889 18.9324ZM119.047 18.9411V29.3143H121.034V18.9411H119.047ZM127.959 20.5399C129.885 20.5399 131.576 21.6301 131.576 24.0117C131.576 26.3916 130.088 27.5815 127.979 27.5815C126.873 27.5815 124.543 26.8778 124.543 24.0526C124.543 21.1821 126.868 20.5399 127.959 20.5399ZM104.53 20.5945C106.277 20.5945 107.7 21.7701 107.7 23.1806H100.991C101.115 21.7469 102.66 20.5945 104.53 20.5945Z" fill="#757575"/>
<path d="M17.4036 18.8047C14.7471 18.8047 11.6014 20.1305 11.6014 24.0316C11.6014 27.8942 14.4316 29.3949 17.4036 29.3949C20.3776 29.3949 23.2069 27.8942 23.2069 24.0316C23.2069 20.1305 20.062 18.8047 17.4036 18.8047ZM29.885 18.806C27.3914 18.806 26.185 20.2324 26.185 20.2324L26.0807 18.9436H24.2667V32.13H26.185V27.7589C26.185 27.7589 27.4186 29.3379 29.9061 29.3379C32.3956 29.3379 35.2373 28.1399 35.2373 24.0304C35.2373 19.9223 32.0773 18.806 29.885 18.806ZM48.0617 18.806C45.8673 18.806 42.7093 20.1302 42.7093 24.0304C42.7093 27.8938 45.5518 29.3379 48.0393 29.3379C50.5187 29.3379 51.7616 27.9623 51.7616 27.9623L51.8672 29.3354H53.6774V18.9436H51.8635L51.7616 20.2324C51.7616 20.2324 50.5532 18.806 48.0617 18.806ZM5.03521 18.8134C2.93856 18.8134 0.689209 19.6045 0.689209 21.7233C0.689209 23.5578 2.36068 24.1284 5.12094 24.6468C6.96315 24.9921 8.66185 25.1677 8.66185 26.1601C8.66185 26.7856 7.82525 27.5877 5.7347 27.5877C4.25075 27.5877 2.75119 27.2766 2.29318 26.2209L0.507812 26.97C1.23859 28.5997 3.18436 29.4433 5.43776 29.4433C9.93641 29.4433 10.8063 27.3074 10.8063 26.0943C10.8063 24.0741 8.79288 23.4941 6.78579 23.1361C4.7848 22.7796 2.81997 22.5308 2.81997 21.6005C2.81997 20.9947 3.42331 20.4594 5.17188 20.4594C6.47466 20.4594 7.97395 20.7611 8.38107 21.6811L10.2261 20.9071C9.51972 19.4933 7.43314 18.8134 5.03521 18.8134ZM42.1452 18.9325C40.5536 18.9179 39.3815 19.3988 38.4428 20.3775L38.3397 18.9473H36.4537V29.3292H38.4428V23.9485C38.4428 22.4483 39.6547 20.5462 42.8547 20.7248V18.9684C42.6096 18.9461 42.3726 18.9346 42.1452 18.9325ZM48.1449 20.54C50.0706 20.54 51.7616 21.6302 51.7616 24.0118C51.7616 26.3917 50.2737 27.5815 48.1648 27.5815C47.0574 27.5815 44.7295 26.8779 44.7295 24.0527C44.7295 21.1822 47.0518 20.54 48.1449 20.54ZM29.8017 20.5412C30.8928 20.5412 33.2196 20.9694 33.2196 24.0527C33.2196 27.1352 30.8872 27.5816 29.7818 27.5816C27.673 27.5816 26.185 26.3917 26.185 24.0118C26.185 21.6302 27.8761 20.5412 29.8017 20.5412ZM17.4036 20.5995C18.802 20.5995 21.1855 21.1814 21.1855 24.0527C21.1855 26.8779 19.0361 27.5816 17.4036 27.5816C15.7731 27.5816 13.6191 26.8779 13.6191 24.0527C13.6191 21.1814 16.0071 20.5995 17.4036 20.5995Z" fill="#757575"/>
<path d="M71.1255 16.2458C65.8493 16.2458 62.8609 18.1213 62.8609 18.1213C66.3642 18.7793 73.2926 22.2964 75.5175 22.2964C76.3826 22.2964 76.7984 21.4568 76.7984 20.4581C76.7984 19.2927 76.3831 18.0246 75.6156 17.2729C74.8889 16.5575 73.1693 16.2458 71.1255 16.2458ZM59.766 25.0648C58.9009 25.0648 58.4863 25.9049 58.4863 26.9043C58.4863 28.0698 58.9013 29.337 59.6666 30.0896C60.3954 30.8041 62.1155 31.1178 64.1592 31.1178C69.4335 31.1178 72.4239 29.2412 72.4239 29.2412C68.9206 28.5831 61.9909 25.0648 59.766 25.0648Z" fill="#757575"/>
</svg>
