<svg width="134" height="48" viewBox="0 0 134 48" fill="none" xmlns="http://www.w3.org/2000/svg">
<path d="M116.285 20.7762C116.042 19.7512 115.341 18.0129 113.177 18.0129C112.05 18.0129 110.65 18.5097 110.65 19.9683C110.65 21.7379 113.269 22.6376 114.976 23.632C116.53 24.5018 117.81 25.3717 117.81 27.6993C117.81 30.3694 115.586 31.8912 112.203 31.8912C110.873 31.9096 109.547 31.7207 108.272 31.3311L108.059 27.8845H108.821C109.125 28.9735 109.856 30.8649 112.416 30.8649C114.396 30.8649 115.433 29.4063 115.433 28.3466C115.433 26.1414 111.531 25.0558 109.856 23.7824C109.349 23.4891 108.933 23.0578 108.653 22.5368C108.373 22.0158 108.241 21.4257 108.272 20.8326C108.272 17.9455 110.831 16.9824 113.33 16.9824C114.515 17.0062 115.692 17.1836 116.834 17.5106L117.046 20.7707H116.285V20.7762Z" fill="#757575"/>
<path d="M63.5259 22.1422C63.5259 18.5418 61.059 16.99 58.3157 16.99C53.9271 16.99 52.1289 19.5035 52.1289 24.0371C52.1289 29.2533 54.7794 31.8927 59.5033 31.8927C60.6336 31.9286 61.7619 31.7747 62.8432 31.4373L63.0743 30.3654C62.4155 30.6376 61.7082 30.7667 60.9976 30.7445C55.9083 30.7445 54.6592 25.4357 54.6592 22.8269H63.5252V22.1422H63.5259ZM54.6585 21.8019C54.6585 20.6537 55.6024 18.015 57.9189 18.015C60.2655 18.015 60.8139 20.1569 60.8139 21.8019H54.6585Z" fill="#757575"/>
<path d="M81.2781 28.7561V21.6778C81.2781 18.7892 80.9735 16.989 77.7432 16.989C74.7253 16.9883 73.3553 19.9388 72.9285 21.0856H72.867V16.9897L68.1738 17.7343V18.2618C69.0582 18.3237 70.4897 18.4169 70.4897 20.2798V28.7561C70.4897 30.7741 69.453 31.0539 68.1738 31.0539V31.5813H75.1822V31.0539C73.9024 31.0539 72.8657 30.7741 72.8657 28.7561V24.9372C72.8657 21.9881 75.0593 18.4796 76.8575 18.4796C78.8681 18.4796 78.8975 19.691 78.8975 22.359V28.7568C78.8975 30.7755 77.8621 31.0552 76.5836 31.0552V31.582H82.6655L82.8151 30.9947C81.5052 30.9048 81.2788 30.3222 81.2788 28.7561" fill="#757575"/>
<path d="M99.9237 28.6016V16.989L95.2306 17.7377V18.2645C96.145 18.3264 97.5458 18.4197 97.5458 20.2818V24.5697C97.5458 27.3949 95.809 30.3134 93.8292 30.3134C92.2454 30.3134 91.3917 29.1019 91.3917 26.5251V16.9965L86.6992 17.7452V18.272C87.6137 18.3339 89.0157 18.4271 89.0157 20.2893V27.2023C89.0157 30.0908 90.3557 31.891 92.916 31.891C96.1757 31.891 97.0895 29.1904 97.485 28.1653H97.5458V31.891L101.95 31.192L102.077 30.6067C101.168 30.5386 99.9237 30.3569 99.9237 28.6016Z" fill="#757575"/>
<path d="M28.1601 30.1891C27.904 30.3221 27.6175 30.3828 27.3305 30.3647C27.1555 30.3352 26.9935 30.2517 26.8664 30.1255C26.7394 29.9993 26.6533 29.8365 26.6198 29.6589C26.6158 29.5956 26.6111 29.5303 26.6111 29.4677V21.7672C26.6111 18.8801 25.849 16.8301 21.6748 16.8301C19.5713 16.8301 16.6176 17.8551 16.6176 19.8711C16.6171 20.0626 16.6554 20.2523 16.73 20.4281C16.8046 20.604 16.9139 20.7624 17.0511 20.8934C17.1883 21.0244 17.3505 21.1252 17.5275 21.1896C17.7046 21.254 17.8928 21.2806 18.0804 21.2677C18.2816 21.2678 18.4806 21.2249 18.6645 21.1417C18.8484 21.0585 19.0132 20.937 19.1481 20.7849C19.283 20.6328 19.3851 20.4536 19.4477 20.2587C19.5104 20.0639 19.5323 19.8579 19.5119 19.6539C19.5119 18.6602 19.7557 17.8524 21.6447 17.8524C24.2037 17.8524 24.2345 20.1494 24.2345 22.324V23.5042C24.2271 23.5042 24.2271 24.5251 24.2345 24.5251V26.3573C24.2345 28.4672 22.9553 30.4253 20.9741 30.4253C19.9374 30.4253 18.9034 29.3363 18.9034 27.7233C18.9034 25.4841 21.2486 24.8143 22.9693 24.6108L23.2579 23.5777C20.6154 23.7819 16.1914 24.2624 16.1914 28.2181C16.1923 28.6972 16.289 29.1712 16.4758 29.6109C16.6626 30.0506 16.9355 30.4468 17.2778 30.7754C17.6201 31.104 18.0245 31.3579 18.4665 31.5217C18.9084 31.6855 19.3784 31.7557 19.8479 31.728C20.7 31.7713 21.5483 31.5853 22.3075 31.1885C23.0666 30.7917 23.7098 30.1982 24.1723 29.4677H24.2325C24.2325 30.7016 24.676 31.5885 26.1375 31.7137C26.2575 31.7346 26.3795 31.7408 26.5009 31.7321H26.5169C26.5847 31.7324 26.6522 31.7228 26.7173 31.7035C27.336 31.4763 27.9279 31.1796 28.4821 30.8187L28.6578 29.8754C28.5066 30.0052 28.337 30.111 28.1548 30.1891" fill="#757575"/>
<path d="M42.9208 29.0981H39.3251C38.3491 29.0981 36.8255 29.0981 36.8255 27.8546C36.8456 27.3392 37.0393 26.8465 37.3739 26.4594C38.2555 26.8116 39.2001 26.97 40.146 26.9242C43.8018 26.9242 45.7222 25.1546 45.7222 22.019C45.7657 21.3345 45.666 20.6485 45.4297 20.0062C45.1934 19.3639 44.8259 18.7801 44.3515 18.2934C43.2634 17.4541 41.9376 16.9968 40.5728 16.99C37.6785 16.9866 34.8142 17.8598 34.8142 21.8652C34.8142 24.504 35.883 25.435 36.581 26.0251C36.247 26.3974 35.2705 27.5776 35.2705 28.7258C35.2606 29.16 35.3674 29.5886 35.5793 29.9654C35.7912 30.3422 36.1002 30.6528 36.4728 30.8636C36.8815 31.1155 37.3425 31.2658 37.8188 31.3026H42.9815C44.5038 31.3026 45.787 31.8308 45.787 33.4125C45.787 35.6476 43.2274 37.1075 40.4546 37.1075C37.8027 37.1075 36.1869 35.5244 36.1869 33.6922C36.1746 33.3335 36.2431 32.9768 36.3871 32.6492C36.5312 32.3217 36.7469 32.0322 37.0179 31.8028L35.8496 31.3468C35.3506 31.6267 34.9348 32.0384 34.6458 32.5385C34.3568 33.0386 34.2052 33.6087 34.207 34.1891C34.207 36.9796 37.3158 38.1325 40.301 38.1325C44.3536 38.1325 47.7662 36.1445 47.7662 32.6053C47.7662 29.1593 44.3829 29.0981 42.9208 29.0981ZM40.2088 18.015C42.4024 18.015 43.1953 19.8772 43.1953 22.2055C43.1953 23.8506 42.8613 25.9006 40.3003 25.9006C38.106 25.9006 37.3438 23.9751 37.3438 21.6168C37.3438 19.8152 37.8021 18.015 40.2088 18.015Z" fill="#757575"/>
</svg>
