<svg width="134" height="48" viewBox="0 0 134 48" fill="none" xmlns="http://www.w3.org/2000/svg">
<path d="M108.655 11.5088L102.75 24.1503L100.53 19.3603H98.1281L101.78 27.1954H103.721L111.04 11.5088H108.655Z" fill="#757575"/>
<path d="M83.3242 34.9811H88.0779V26.2736C88.0779 24.2819 89.2293 22.8828 90.94 22.8828C92.5848 22.8828 93.4402 24.035 93.4402 25.6975V34.9811H98.1938V24.7922C98.1938 21.3356 96.1213 18.8994 92.7658 18.8994C90.6274 18.8994 89.1306 19.8212 88.0121 21.5002H87.9134V19.3603H83.3078L83.3242 34.9811ZM73.9814 18.9324C69.0139 18.9324 65.6912 22.5042 65.6912 27.2119C65.6912 31.8866 69.0139 35.4914 73.9814 35.4914C78.9489 35.4914 82.2715 31.8866 82.2715 27.2119C82.288 22.5042 78.9489 18.9324 73.9814 18.9324ZM73.9485 31.9689C71.695 31.9689 70.4942 30.0759 70.4942 27.2119C70.4942 24.3149 71.6786 22.4548 73.9485 22.4548C76.2019 22.4548 77.452 24.3149 77.452 27.2119C77.4685 30.0759 76.2184 31.9689 73.9485 31.9689ZM52.1375 34.9811H65.4938V31.2282H57.9274V31.1294L65.1649 23.0145V19.3439H52.1375V23.1133H59.4572V23.212L52.1375 31.3928V34.9811ZM46.035 34.9811H50.8216V19.3603H46.035V34.9811ZM34.9322 34.9811H39.7023V27.8044C39.7023 24.5453 41.6597 23.0968 44.6369 23.5083H44.7356V19.3932C44.4889 19.2945 44.2092 19.278 43.7651 19.278C41.9064 19.278 40.6563 20.134 39.5871 21.961H39.4885V19.3603H34.9322V34.9811ZM26.1815 31.9853C24.076 31.9853 22.793 30.6191 22.5463 28.5122H33.7972C33.8301 25.1543 32.9419 22.4713 31.0832 20.7924C29.7673 19.5743 28.0402 18.8994 25.836 18.8994C21.1317 18.8994 17.8749 22.4713 17.8749 27.146C17.8749 31.8536 20.9837 35.442 26.1486 35.442C28.106 35.442 29.6521 34.9152 30.9351 34.0429C32.3004 33.1046 33.2873 31.722 33.5505 30.3558H28.9777C28.5336 31.3763 27.5796 31.9853 26.1815 31.9853ZM25.9347 22.3067C27.6125 22.3067 28.7639 23.5577 28.9613 25.3848H22.5792C22.9575 23.5412 23.9609 22.3067 25.9347 22.3067ZM8.36752 34.9811H13.3679L18.796 19.3603H14.0094L10.9664 29.4011H10.9006L7.85761 19.3603H2.93945L8.36752 34.9811ZM46.035 13.7968H50.8216V18.0435H46.035V13.7968Z" fill="#757575"/>
</svg>
