<svg width="134" height="48" viewBox="0 0 134 48" fill="none" xmlns="http://www.w3.org/2000/svg">
<path d="M110.408 8.53076C111.258 8.53076 112.036 8.64398 112.744 8.87042C113.451 9.0827 114.053 9.40113 114.548 9.82569C115.043 10.2503 115.425 10.7739 115.694 11.3966C115.977 12.0051 116.119 12.7057 116.119 13.4982C116.119 14.1068 116.027 14.7153 115.843 15.3239C115.659 15.9324 115.355 16.4843 114.93 16.9797C114.52 17.475 113.975 17.8713 113.296 18.1685C112.616 18.4657 111.774 18.6143 110.769 18.6143H108.54V23.985H106.057V8.53076H110.408ZM110.748 16.2367C111.3 16.2367 111.76 16.1518 112.128 15.9819C112.496 15.798 112.779 15.5715 112.977 15.3026C113.189 15.0337 113.338 14.7507 113.423 14.4535C113.522 14.1421 113.571 13.852 113.571 13.5831C113.571 13.3284 113.529 13.0524 113.444 12.7552C113.359 12.4439 113.218 12.1537 113.02 11.8849C112.821 11.6018 112.538 11.3683 112.17 11.1843C111.817 11.0003 111.371 10.9083 110.833 10.9083H108.54V16.2367H110.748ZM113.423 17.7014L117.371 23.985H114.506L110.472 17.7651L113.423 17.7014Z" fill="#757575"/>
<path d="M89.1289 8.53076H99.3822V10.9083H91.6126V15.0267H98.5331V17.4255H91.6126V21.6075H99.6794V23.985H89.1289V8.53076Z" fill="#757575"/>
<path d="M70.0254 23.985V8.53076H74.4197C75.9623 8.53076 77.2714 8.76427 78.3469 9.2313C79.4225 9.68417 80.2929 10.2998 80.958 11.0782C81.6232 11.8424 82.1044 12.6986 82.4016 13.6468C82.7129 14.5809 82.8686 15.522 82.8686 16.4702C82.8686 17.6307 82.6634 18.6709 82.253 19.5908C81.8425 20.5107 81.2835 21.3032 80.5759 21.9683C79.8683 22.6194 79.0475 23.1218 78.1134 23.4756C77.1935 23.8152 76.2099 23.985 75.1627 23.985H70.0254ZM72.5091 21.6075H74.7169C75.5377 21.6075 76.2878 21.4942 76.9671 21.2678C77.6464 21.0272 78.2337 20.6876 78.729 20.2488C79.2385 19.796 79.6277 19.237 79.8966 18.5718C80.1796 17.9066 80.3212 17.1495 80.3212 16.3004C80.3212 15.338 80.1584 14.5172 79.8329 13.8379C79.5216 13.1444 79.1041 12.5854 78.5804 12.1608C78.071 11.7221 77.5119 11.4037 76.9034 11.2055C76.2948 11.0074 75.6934 10.9083 75.099 10.9083H72.5091V21.6075Z" fill="#757575"/>
<path d="M60.334 8.53076H62.8177V23.985H60.334V8.53076Z" fill="#757575"/>
<path d="M53.1315 11.6725C52.5796 11.3895 51.9923 11.1489 51.3696 10.9508C50.7469 10.7385 50.1525 10.6323 49.5864 10.6323C48.8221 10.6323 48.2136 10.8022 47.7607 11.1418C47.322 11.4815 47.1026 11.9485 47.1026 12.5429C47.1026 12.9675 47.2583 13.3425 47.5697 13.668C47.881 13.9793 48.2773 14.2553 48.7585 14.4959C49.2396 14.7223 49.7491 14.9417 50.2869 15.154C50.7539 15.3238 51.2139 15.529 51.6668 15.7696C52.1338 15.996 52.5513 16.2791 52.9192 16.6187C53.2872 16.9584 53.5773 17.383 53.7896 17.8924C54.016 18.3878 54.1293 19.0034 54.1293 19.7393C54.1293 20.546 53.924 21.289 53.5136 21.9683C53.1032 22.6335 52.5159 23.1642 51.7517 23.5604C50.9874 23.9567 50.0534 24.1548 48.9495 24.1548C48.3127 24.1548 47.6829 24.0841 47.0602 23.9425C46.4516 23.801 45.8714 23.61 45.3195 23.3694C44.7675 23.1146 44.258 22.8316 43.791 22.5202L44.8949 20.5885C45.2345 20.8432 45.6237 21.0767 46.0625 21.289C46.5012 21.5013 46.954 21.6711 47.4211 21.7985C47.8881 21.9117 48.3268 21.9683 48.7372 21.9683C49.176 21.9683 49.6076 21.8975 50.0322 21.756C50.4709 21.6145 50.8318 21.381 51.1148 21.0555C51.412 20.73 51.5606 20.2983 51.5606 19.7605C51.5606 19.3218 51.4332 18.9468 51.1785 18.6354C50.9238 18.3241 50.5912 18.0552 50.1808 17.8288C49.7845 17.5882 49.3458 17.3759 48.8646 17.1919C48.3834 17.0079 47.8881 16.8027 47.3786 16.5763C46.8833 16.3498 46.4233 16.0739 45.9988 15.7484C45.5742 15.4087 45.2275 14.9983 44.9586 14.5171C44.6897 14.036 44.5552 13.4416 44.5552 12.7339C44.5552 11.8848 44.7534 11.1489 45.1496 10.5262C45.5459 9.90349 46.0908 9.40816 46.7842 9.0402C47.4918 8.67224 48.3056 8.47411 49.2255 8.4458C50.3152 8.4458 51.2422 8.58025 52.0064 8.84914C52.7848 9.10388 53.4712 9.41523 54.0656 9.78319L53.1315 11.6725Z" fill="#757575"/>
<path d="M37.7424 24.5369L25.8758 13.0311L26.5975 13.3283L26.6612 23.985H24.1562V8H24.2624L35.9592 19.5058L35.3861 19.336L35.3436 8.53071H37.8061V24.5369H37.7424Z" fill="#757575"/>
<path d="M14.4648 8.53076H16.9486V23.985H14.4648V8.53076Z" fill="#757575"/>
<path d="M122.807 30.0938H128.872V31.5001H124.276V33.9361H128.369V35.3551H124.276V37.8288H129.047V39.2351H122.807V30.0938Z" fill="#757575"/>
<path d="M117.902 38.5192C117.777 38.6113 117.58 38.7243 117.312 38.8583C117.044 38.9922 116.726 39.1094 116.358 39.2099C115.998 39.302 115.596 39.3438 115.152 39.3354C114.441 39.3271 113.8 39.2015 113.231 38.9587C112.662 38.7076 112.181 38.3727 111.787 37.9542C111.394 37.5273 111.088 37.0417 110.871 36.4976C110.661 35.9451 110.557 35.3591 110.557 34.7396C110.557 34.0448 110.665 33.4086 110.883 32.831C111.101 32.2534 111.41 31.7553 111.812 31.3367C112.214 30.9098 112.691 30.5791 113.244 30.3448C113.796 30.1104 114.399 29.9932 115.052 29.9932C115.63 29.9932 116.144 30.0727 116.596 30.2317C117.057 30.3824 117.442 30.554 117.752 30.7466L117.174 32.1278C116.94 31.9604 116.647 31.7972 116.295 31.6381C115.944 31.4791 115.546 31.3995 115.102 31.3995C114.7 31.3995 114.315 31.4832 113.947 31.6507C113.579 31.8097 113.256 32.0399 112.98 32.3413C112.704 32.6343 112.482 32.9775 112.315 33.3709C112.156 33.7644 112.076 34.1913 112.076 34.6517C112.076 35.1289 112.147 35.5684 112.289 35.9702C112.44 36.3637 112.649 36.7069 112.917 36.9999C113.194 37.2929 113.52 37.5231 113.897 37.6905C114.282 37.8495 114.709 37.9291 115.178 37.9291C115.655 37.9291 116.069 37.8579 116.421 37.7156C116.781 37.5649 117.069 37.3975 117.287 37.2133L117.902 38.5192Z" fill="#757575"/>
<path d="M105.609 39.5615L98.5894 32.7558L99.0163 32.9315L99.054 39.2351H97.5723V29.7798H97.635L104.554 36.5856L104.215 36.4851L104.19 30.0937H105.646V39.5615H105.609Z" fill="#757575"/>
<path d="M86.3535 30.0938H92.4185V31.5001H87.8227V33.9361H91.9162V35.3551H87.8227V37.8288H92.5943V39.2351H86.3535V30.0938Z" fill="#757575"/>
<path d="M81.1772 38.3937C81.06 38.5109 80.8843 38.6239 80.6499 38.7327C80.4238 38.8415 80.1685 38.942 79.8839 39.0341C79.5993 39.1262 79.3063 39.1973 79.0049 39.2475C78.7036 39.3061 78.4189 39.3354 78.1511 39.3354C77.4144 39.3354 76.7489 39.2224 76.1545 38.9964C75.5685 38.7704 75.0621 38.4606 74.6351 38.0672C74.2166 37.6654 73.8943 37.1924 73.6683 36.6483C73.4506 36.1042 73.3418 35.514 73.3418 34.8778C73.3418 34.0825 73.4674 33.3835 73.7185 32.7808C73.9696 32.1697 74.3129 31.659 74.7482 31.2488C75.1835 30.8303 75.6815 30.5164 76.2424 30.3071C76.8117 30.0978 77.4102 29.9932 78.038 29.9932C78.5905 29.9932 79.1012 30.0559 79.57 30.1815C80.0471 30.3071 80.4531 30.4661 80.788 30.6587L80.3108 32.0148C80.1518 31.9227 79.9467 31.8348 79.6955 31.7511C79.4444 31.659 79.1891 31.5879 78.9296 31.5377C78.6784 31.4874 78.444 31.4623 78.2264 31.4623C77.699 31.4623 77.226 31.5377 76.8075 31.6883C76.3973 31.8306 76.0457 32.0441 75.7527 32.3287C75.4597 32.6134 75.2337 32.9608 75.0746 33.3709C74.924 33.7728 74.8486 34.2332 74.8486 34.7522C74.8486 35.221 74.9281 35.6479 75.0872 36.033C75.2546 36.4181 75.4848 36.7487 75.7778 37.025C76.0792 37.3012 76.4308 37.5147 76.8326 37.6654C77.2428 37.8077 77.6948 37.8788 78.1887 37.8788C78.4733 37.8788 78.7496 37.8537 79.0175 37.8035C79.2854 37.7533 79.5114 37.6738 79.6955 37.5649V36.0456H77.9878V34.6392H81.1772V38.3937Z" fill="#757575"/>
<path d="M66.9668 30.0938H68.4359V39.2351H66.9668V30.0938Z" fill="#757575"/>
<path d="M56.1035 30.0938H57.5727V37.8288H62.0806V39.2351H56.1035V30.0938Z" fill="#757575"/>
<path d="M45.2402 30.0938H46.7094V37.8288H51.2173V39.2351H45.2402V30.0938Z" fill="#757575"/>
<path d="M34.0195 30.0938H40.0845V31.5001H35.4887V33.9361H39.5822V35.3551H35.4887V37.8288H40.2603V39.2351H34.0195V30.0938Z" fill="#757575"/>
<path d="M23.0918 30.0938H29.207V31.5001H26.8463V39.2351H25.3897V31.5001H23.0918V30.0938Z" fill="#757575"/>
<path d="M18.2317 39.5615L11.2124 32.7558L11.6393 32.9315L11.677 39.2351H10.1953V29.7798H10.2581L17.1769 36.5856L16.8379 36.4851L16.8128 30.0937H18.2693V39.5615H18.2317Z" fill="#757575"/>
<path d="M3.25586 30.0938H4.72501V39.2351H3.25586V30.0938Z" fill="#757575"/>
</svg>
