<svg width="134" height="48" viewBox="0 0 134 48" fill="none" xmlns="http://www.w3.org/2000/svg">
<path fill-rule="evenodd" clip-rule="evenodd" d="M44.8004 23.4999C44.8004 38.2699 43.6045 39.4258 28.325 39.4258C13.0455 39.4258 11.8496 38.2699 11.8496 23.4999C11.8496 8.72994 13.0455 7.57397 28.325 7.57397C43.6045 7.57397 44.8004 8.72994 44.8004 23.4999ZM26.9277 19.9597C25.2241 20.5508 24.638 22.1514 24.638 22.1514C24.4088 22.7421 23.8 23.1856 23.1134 23.1856H19.8833C18.9934 23.1856 18.2563 22.4705 18.2563 21.6096C18.2563 20.7472 18.8664 20.0581 19.8833 20.0581L22.4453 20.0625L18.7386 16.4639C18.1041 15.8479 18.1041 14.863 18.7386 14.2498C19.3747 13.6344 20.3927 13.6344 21.0274 14.2498L24.7147 17.8128V15.3566C24.7147 14.4955 25.4271 13.7825 26.3418 13.7825C27.2333 13.7825 27.9451 14.4955 27.9451 15.3566V18.4824C27.9451 19.1474 27.5378 19.7636 26.9277 19.9597ZM26.3418 33.2043C25.453 33.2043 24.7396 32.6362 24.7658 31.6527L24.77 29.1571L21.0528 32.7595C20.4178 33.3766 19.3747 33.3766 18.7645 32.7595C18.1295 32.1457 18.1295 31.1359 18.7645 30.546L22.442 26.9742H19.909C18.9934 26.9742 18.2825 26.261 18.2825 25.4016C18.2825 24.5391 18.9934 23.8251 19.909 23.8251H23.1379C23.8243 23.8251 24.435 24.2181 24.6648 24.8097C25.2498 26.4823 26.9009 27.0484 26.9009 27.0484C27.5378 27.2697 27.9705 27.8359 27.9705 28.5255V31.6527C27.9705 32.5146 27.2573 33.2043 26.3418 33.2043ZM36.7404 26.9507L34.1735 26.9479L37.884 30.546C38.5198 31.1603 38.5198 32.1457 37.884 32.7595C37.2495 33.3766 36.231 33.3766 35.596 32.7595L31.9092 29.1905V31.6527C31.9092 32.5894 31.1712 33.2289 30.2816 33.2289C29.3909 33.2289 28.6538 32.5147 28.6538 31.6527V28.5255C28.6538 27.8605 29.0859 27.2454 29.6969 27.0485C31.3998 26.4823 31.9846 24.8587 31.9846 24.8587C32.2135 24.2691 32.8242 23.8251 33.5106 23.8251H36.7404C37.6314 23.8251 38.3677 24.5391 38.3677 25.4016C38.3677 26.261 37.7067 26.9507 36.7404 26.9507ZM36.7661 23.1604H33.536C32.8499 23.1604 32.2135 22.7665 32.0106 22.1758C31.4249 20.5262 29.7477 19.9348 29.7477 19.9348C29.1372 19.713 28.6792 19.1474 28.6792 18.4572V15.3316C28.6792 14.4708 29.4166 13.7826 30.3076 13.7826C31.1969 13.7826 31.9093 14.4221 31.9093 15.3316L31.9098 17.8369L35.6211 14.2249C36.2569 13.6103 37.2744 13.6103 37.9099 14.2249C38.5458 14.8384 38.5458 15.8479 37.9099 16.4639L34.2489 20.0088H36.7661C37.6557 20.0088 38.3928 20.7228 38.3928 21.5847C38.3928 22.4464 37.6557 23.1604 36.7661 23.1604ZM55.9098 11.7562C55.6143 11.7562 55.3179 11.7694 55.1166 11.8009V15.0127C55.2564 15.0279 55.5362 15.0416 55.8468 15.0416C57.0599 15.0416 57.8073 14.3871 57.8073 13.4383C57.8073 12.4615 57.1849 11.7562 55.9098 11.7562ZM55.288 16.4604H55.1166V20.8384H53.0919V10.22C53.9177 10.1745 54.8969 10.1598 56.1121 10.1598C58.4294 10.1598 59.9241 11.1645 59.9241 13.2432C59.9241 14.7496 58.803 15.8855 57.3406 16.1271C57.6349 16.5021 57.9295 16.9257 58.1788 17.2842L58.1818 17.2885L60.6249 20.8384H58.1196L55.288 16.4604ZM62.9041 17.0277C62.9041 18.5656 63.4948 19.3471 64.631 19.3471C65.6119 19.3471 66.3741 18.5797 66.3741 17.0592C66.3741 15.6115 65.829 14.8287 64.6629 14.8287C63.7761 14.8287 62.9041 15.4929 62.9041 17.0277ZM60.8486 17.2246C60.8486 14.8888 62.4526 13.2039 64.8018 13.2039C67.0122 13.2039 68.4285 14.3771 68.4285 16.9523C68.4285 19.3015 66.7789 20.9876 64.4743 20.9876C62.2817 20.9876 60.8486 19.889 60.8486 17.2246ZM76.5903 13.3547L73.5254 21.2607C72.5142 23.8503 71.424 24.5885 69.6349 24.5885C69.3074 24.5885 68.8411 24.5435 68.5459 24.4828L68.7798 22.8253C69.0747 22.9165 69.4321 22.9761 69.7596 22.9761C70.4131 22.9761 71.0968 22.6749 71.5167 21.5014L71.7657 20.8384L68.9018 13.3547H71.1288L72.1713 16.2153C72.3896 16.8632 72.6069 17.6014 72.7774 18.2783H72.794C72.9643 17.6014 73.2921 16.591 73.5411 15.8998L74.4581 13.3547H76.5903ZM81.4574 17.7078V17.5107C79.4513 17.5107 78.907 17.9933 78.907 18.6397C78.907 19.1197 79.2633 19.5126 79.8401 19.5126C80.8056 19.5126 81.4574 18.6105 81.4574 17.7078ZM81.6137 19.673C81.2068 20.4539 80.2996 20.9878 79.2034 20.9878C77.8029 20.9878 76.9919 20.0714 76.9919 18.8515C76.9919 17.0734 78.7504 16.2458 81.4574 16.2458V15.9759C81.4574 15.0704 81.1008 14.6643 80.0737 14.6643C79.3731 14.6643 78.4232 14.8887 77.7389 15.1764L77.4129 13.7015C78.1905 13.3998 79.2946 13.188 80.3396 13.188C82.7353 13.188 83.4501 14.152 83.4501 15.8237V18.912C83.4501 19.5126 83.4664 20.2224 83.5123 20.8385H81.6137V19.673ZM87.061 20.8384H85.0685V9.84466H87.061V20.8384ZM94.7361 16.0591C94.5949 16.0591 94.0673 16.0591 93.849 16.0734V19.2416L93.8691 19.2428C94.124 19.2583 94.6047 19.2877 94.9689 19.2877C96.2916 19.2877 96.9619 18.4111 96.9619 17.5228C96.9619 16.5585 96.1213 16.0591 94.7361 16.0591ZM94.9849 11.7854C94.5493 11.7854 94.175 11.8008 93.849 11.8157V14.5824C94.098 14.5985 94.3477 14.5985 94.6731 14.5985C96.0573 14.5985 96.6812 14.0024 96.6812 13.0986C96.6812 12.3459 96.214 11.7854 94.9849 11.7854ZM97.2414 15.1404C98.3619 15.3676 99.124 16.3321 99.124 17.4623C99.124 19.0292 97.9707 20.868 94.8922 20.868C94.5966 20.868 94.2407 20.8628 93.8288 20.8567C93.2632 20.8484 92.5919 20.8385 91.8264 20.8385V10.2941C92.7135 10.2509 94.0353 10.2199 95.3121 10.2199C97.568 10.2199 98.8288 11.1578 98.8288 12.7831C98.8288 13.7924 98.252 14.7191 97.2414 15.11V15.1404ZM103.134 19.5127C104.099 19.5127 104.752 18.6103 104.752 17.708V17.5108C102.744 17.5108 102.201 17.9931 102.201 18.6396C102.201 19.1198 102.559 19.5127 103.134 19.5127ZM102.497 20.9876C101.095 20.9876 100.286 20.0712 100.286 18.8516C100.286 17.0732 102.045 16.2457 104.752 16.2457V15.976C104.752 15.0702 104.394 14.6644 103.366 14.6644C102.666 14.6644 101.718 14.8888 101.032 15.1762L100.705 13.7013C101.485 13.3999 102.59 13.1881 103.632 13.1881C106.029 13.1881 106.745 14.1521 106.745 15.8236V18.9118C106.745 19.5127 106.759 20.2225 106.806 20.8386H104.908V19.672C104.502 20.4537 103.593 20.9876 102.497 20.9876ZM112.149 14.8146C111.152 14.8146 110.36 15.913 110.36 17.2246V20.8383H108.367V13.3546H110.25V14.5447C110.738 13.7527 111.601 13.2039 112.786 13.2039C114.53 13.2039 115.089 14.2719 115.089 15.582V20.8383H113.113V16.05C113.113 15.2814 112.896 14.8146 112.149 14.8146ZM121.027 20.8385L118.631 17.3798V20.8385H116.639V9.84477H118.631V16.1037L120.887 13.3545H123.316L120.458 16.7728L123.516 20.8385H121.027ZM54.5697 33.1731C54.5697 34.7071 55.1625 35.4919 56.2983 35.4919C57.2784 35.4919 58.0418 34.7222 58.0418 33.2026C58.0418 31.7558 57.4966 30.9727 56.3294 30.9727C55.4417 30.9727 54.5697 31.6358 54.5697 33.1731ZM52.5168 33.368C52.5168 31.0334 54.1196 29.3459 56.4686 29.3459C58.6787 29.3459 60.0946 30.5219 60.0946 33.0969C60.0946 35.4452 58.4448 37.1325 56.1423 37.1325C53.9494 37.1325 52.5168 36.0341 52.5168 33.368ZM62.1258 29.5187V28.9026C62.1258 26.8841 63.0902 25.8888 65.2062 25.8888C65.6263 25.8888 66.061 25.9207 66.4667 26.0106L66.3272 27.5921C66.0154 27.4864 65.6557 27.4563 65.3622 27.4563C64.4896 27.4563 64.1014 27.8936 64.1014 28.8865V29.5187H65.9076V31.011H64.1014V37.0044H62.1258V31.011H60.7706V29.5187H62.1258ZM73.1823 27.9932C72 27.9932 71.4557 28.4903 71.4557 29.2119C71.4557 29.986 72.2804 30.3594 73.2234 30.7864C74.4825 31.3566 75.9526 32.0223 75.9526 33.8647C75.9526 35.7465 74.3184 37.1478 71.8907 37.1478C70.9577 37.1478 70.1632 37.0575 69.4636 36.8753L69.6806 34.9937C70.3498 35.2645 71.1282 35.4319 71.9677 35.4319C72.9176 35.4319 73.7256 35.0553 73.7256 34.1054C73.7256 33.2655 72.8992 32.9018 71.9612 32.489C70.7303 31.9473 69.3072 31.3209 69.3072 29.4231C69.3072 27.6163 70.7392 26.3675 73.2767 26.3675C73.8509 26.3675 74.5834 26.4409 75.1741 26.5607L74.9885 28.2783C74.4117 28.0983 73.8044 27.9932 73.1823 27.9932ZM78.874 33.294C78.874 34.5734 79.3551 35.4623 80.6775 35.4623C81.2072 35.4623 81.7358 35.356 82.1867 35.1589L82.452 36.7722C81.845 36.9963 81.0204 37.1181 80.2724 37.1181C78.1263 37.1181 76.7867 36.034 76.7867 33.488C76.7867 31.1531 78.0481 29.3621 80.7246 29.3621C81.315 29.3621 81.9226 29.4515 82.42 29.618L82.1091 31.2735C81.6887 31.1075 81.1755 30.9883 80.6621 30.9883C79.4795 30.9883 78.874 31.9065 78.874 33.294ZM84.9464 33.1731C84.9464 34.7071 85.5374 35.4919 86.6741 35.4919C87.6548 35.4919 88.4167 34.7222 88.4167 33.2026C88.4167 31.7558 87.8722 30.9727 86.7055 30.9727C85.8166 30.9727 84.9464 31.6358 84.9464 33.1731ZM82.8918 33.368C82.8918 31.0334 84.496 29.3459 86.845 29.3459C89.0542 29.3459 90.4716 30.5219 90.4716 33.0969C90.4716 35.4452 88.8221 37.1325 86.5181 37.1325C84.3243 37.1325 82.8918 36.0341 82.8918 33.368ZM94.452 34.2705C94.452 35.2348 94.6836 35.5062 95.3687 35.5062C95.6968 35.5062 95.9917 35.4755 96.2561 35.4007L96.3968 36.9212C95.8988 37.043 95.2598 37.1324 94.7152 37.1324C93.0044 37.1324 92.475 36.53 92.475 34.7823V30.9883H91.1363V29.4965H92.475V26.8725L94.452 26.3616V29.4965H96.3343V30.9883H94.452V34.2705ZM99.6535 37.0044H97.6628V26.0093H99.6535V37.0044ZM103.655 35.6762C104.619 35.6762 105.271 34.773 105.271 33.8681V33.6723C103.264 33.6723 102.72 34.1549 102.72 34.8014C102.72 35.2836 103.079 35.6762 103.655 35.6762ZM104.15 29.3508C106.548 29.3508 107.263 30.3145 107.263 31.9851V35.0745C107.263 35.6762 107.28 36.3829 107.326 37.0015H105.427V35.8327C105.024 36.6136 104.114 37.1514 103.015 37.1514C101.616 37.1514 100.806 36.2336 100.806 35.0126C100.806 33.2371 102.564 32.4078 105.271 32.4078V32.1367C105.271 31.2323 104.915 30.8271 103.886 30.8271C103.186 30.8271 102.238 31.0526 101.552 31.3378L101.226 29.8631C102.004 29.5617 103.109 29.3508 104.15 29.3508ZM110.474 30.7105C110.962 29.9191 111.826 29.3683 113.012 29.3683C114.755 29.3683 115.315 30.4377 115.315 31.7481V37.0044H113.338V32.2141C113.338 31.4464 113.12 30.9799 112.373 30.9799C111.378 30.9799 110.584 32.08 110.584 33.3904V37.0044H108.592V29.5187H110.474V30.7105ZM119.874 35.5668C120.916 35.5668 121.54 34.3914 121.54 33.1122V31.0186C121.183 30.943 120.839 30.898 120.497 30.898C119.361 30.898 118.552 31.5895 118.552 33.4429C118.552 34.8427 118.972 35.5668 119.874 35.5668ZM121.54 29.4371V26.0016H123.516V36.997H121.663V35.8557C121.239 36.6254 120.412 37.1624 119.283 37.1624C117.401 37.1624 116.466 35.7921 116.466 33.6541C116.466 31.1224 117.991 29.3772 120.56 29.3772C120.887 29.3772 121.198 29.3904 121.54 29.4371Z" fill="#757575"/>
</svg>
