<svg width="134" height="48" viewBox="0 0 134 48" fill="none" xmlns="http://www.w3.org/2000/svg">
<g clip-path="url(#clip0_2485_85326)">
<path d="M7.96744 18.8462C7.77184 19.2895 7.48931 19.7328 7.07638 20.1127C6.20704 20.9571 5.12037 21.2948 3.99023 21.337L8.22824 25.4532C8.29345 24.3556 8.61948 23.3002 9.48876 22.4559C9.87994 22.0759 10.3364 21.8015 10.7928 21.5904C9.48876 21.126 8.44558 20.1127 7.96744 18.8462Z" fill="#757575"/>
<path d="M7.03075 28.1571C8.63905 26.595 8.63905 24.0619 7.03075 22.4999C5.42248 20.9379 2.81447 20.9379 1.20621 22.4999C-0.402068 24.0619 -0.402068 26.595 1.20621 28.1571C2.81447 29.7192 5.42248 29.7192 7.03075 28.1571Z" fill="#757575"/>
<path d="M15.3765 14.4135C16.9847 15.9755 16.9847 18.5086 15.3765 20.0707C13.7682 21.6327 11.1602 21.6327 9.55192 20.0707C7.94363 18.5086 7.94363 15.9755 9.55192 14.4135C11.1602 12.8514 13.7682 12.8514 15.3765 14.4135Z" fill="#757575"/>
<path d="M32.0649 14.4135C30.4566 12.8514 27.8486 12.8514 26.2403 14.4135C25.4579 15.1734 25.0668 16.1444 25.045 17.1154C24.9798 18.2131 24.6538 19.2685 23.7845 20.1129C23.3932 20.4928 22.9368 20.7884 22.4805 20.9783C23.8062 21.4427 24.8493 22.456 25.3275 23.7436C25.5231 23.2792 25.8056 22.8571 26.2186 22.4771C27.0879 21.6327 28.1746 21.295 29.3048 21.2528C30.3262 21.2317 31.3259 20.8306 32.0866 20.0918C33.6732 18.5086 33.6732 15.9755 32.0649 14.4135ZM30.6305 18.6775C30.2392 19.0574 29.6959 19.2685 29.1526 19.2685C28.5875 19.2685 28.0659 19.0574 27.6747 18.6775C26.8489 17.8753 26.8489 16.5877 27.6747 15.7856C28.0659 15.4056 28.6093 15.1945 29.1526 15.1945C29.7177 15.1945 30.2392 15.4056 30.6305 15.7856C31.0217 16.1655 31.239 16.6932 31.239 17.221C31.2607 17.7909 31.0434 18.2975 30.6305 18.6775Z" fill="#757575"/>
<path d="M23.7241 22.5202C25.3324 24.0822 25.3324 26.6153 23.7241 28.1774C22.1158 29.7394 19.5078 29.7394 17.8996 28.1774C16.2913 26.6153 16.2913 24.0822 17.8996 22.5202C19.5078 20.9581 22.1158 20.9581 23.7241 22.5202Z" fill="#757575"/>
<path d="M17.8543 20.1117C16.9849 19.2674 16.6372 18.2119 16.5937 17.1143L12.334 21.2305C13.4641 21.2938 14.5507 21.6104 15.4201 22.4548C16.2895 23.2992 16.6372 24.3546 16.6807 25.4523L20.9187 21.336C19.8102 21.2938 18.7236 20.9561 17.8543 20.1117Z" fill="#757575"/>
<path d="M67.7556 29.422C65.6692 29.422 64.3652 28.1766 64.3652 26.1924V14.0126C64.3652 13.5271 64.7347 13.1682 65.2346 13.1682C65.7344 13.1682 66.1039 13.5482 66.1039 14.0126V18.1499H69.1683C69.6247 18.1499 70.0159 18.5299 70.0159 18.9731C70.0159 19.3953 69.6247 19.7753 69.1683 19.7753H66.1039V26.0868C66.1039 27.2479 66.6907 27.7967 67.9295 27.7967C68.3859 27.7967 68.6684 27.7122 68.864 27.6489C68.9727 27.6067 69.0596 27.5856 69.1683 27.5856C69.603 27.5856 69.9942 27.9655 69.9942 28.3877C69.9942 28.7254 69.7986 28.9998 69.4291 29.1265C69.0162 29.2532 68.4728 29.422 67.7556 29.422Z" fill="#757575"/>
<path d="M76.994 29.4231C75.4944 29.4231 73.7557 28.8532 72.5604 27.9877C72.4082 27.8822 72.2344 27.6078 72.2344 27.3333C72.2344 26.89 72.6255 26.489 73.1037 26.489C73.2992 26.489 73.4948 26.5523 73.647 26.6579C74.7336 27.4177 75.8638 27.7977 77.0591 27.7977C78.4066 27.7977 79.3412 27.1011 79.3412 26.1301V26.0879C79.3412 25.1802 78.4284 24.758 76.7114 24.2937L76.668 24.2725L76.6245 24.2514C74.8858 23.7659 72.7342 23.1537 72.7342 21.064V21.0218C72.7342 19.1431 74.3859 17.771 76.668 17.771C77.8633 17.771 79.2107 18.1298 80.3626 18.7631L80.3843 18.7842C80.6669 18.9742 80.819 19.2275 80.819 19.523C80.819 19.9663 80.4278 20.3674 79.9497 20.3674C79.7758 20.3674 79.602 20.3252 79.4716 20.2407C78.537 19.713 77.559 19.4175 76.6245 19.4175C75.364 19.4175 74.4946 20.0297 74.4946 20.9162V20.9584C74.4946 21.845 75.6465 22.225 77.2765 22.6894C78.7109 23.0694 81.1016 23.7237 81.1016 25.9824V26.0246C81.0798 27.9666 79.3629 29.4231 76.994 29.4231Z" fill="#757575"/>
<path d="M84.8598 29.2965C84.3599 29.2965 83.9688 28.9377 83.9688 28.4521V14.0137C83.9688 13.5282 84.3382 13.1482 84.8381 13.1482C85.338 13.1482 85.7074 13.5282 85.7074 14.0137V28.431C85.7291 28.9377 85.3597 29.2965 84.8598 29.2965Z" fill="#757575"/>
<path d="M101.269 29.4438C97.9653 29.4438 95.3574 26.8897 95.3574 23.6178V23.5756C95.3574 20.2826 97.9653 17.7073 101.312 17.7073C104.615 17.7073 107.223 20.2614 107.223 23.5333V23.5756C107.223 26.8897 104.615 29.4438 101.269 29.4438ZM101.269 19.3538C98.9428 19.3538 97.1827 21.148 97.1827 23.5545V23.5967C97.1827 25.9608 98.9866 27.8396 101.312 27.8396C103.638 27.8396 105.398 26.0453 105.398 23.6389V23.5967C105.398 21.2113 103.594 19.3538 101.269 19.3538Z" fill="#757575"/>
<path d="M56.147 29.4438C52.9088 29.4438 50.4746 26.9318 50.4746 23.5967V23.5545C50.4746 20.2826 52.887 17.7073 55.9732 17.7073C59.0593 17.7073 61.2979 20.1559 61.2979 23.5122C61.2979 23.9344 60.8849 24.3354 60.4285 24.3354H54.517C54.0389 24.3354 53.6912 23.9977 53.6912 23.5545C53.6912 23.09 54.0389 22.7523 54.517 22.7523H59.4506C59.2115 21.1058 58.19 19.3327 55.9297 19.3327C54.0824 19.3327 52.6045 20.7681 52.3002 22.7945L52.2568 23.1322C52.2133 23.4911 52.2133 23.8077 52.2568 24.1033V24.1244C52.4741 26.2985 54.0824 27.8185 56.147 27.8185C57.4076 27.8185 58.4508 27.3962 59.4288 26.4675C59.6027 26.2985 59.7983 26.2353 60.0156 26.2353C60.4937 26.2353 60.885 26.5941 60.885 27.0585C60.885 27.2063 60.8415 27.4385 60.6024 27.6495C59.3202 28.916 57.9944 29.4438 56.147 29.4438Z" fill="#757575"/>
<path d="M110.354 33.7279C109.854 33.7279 109.463 33.369 109.463 32.8623V23.0678C109.463 19.8382 112.027 17.7273 115.069 17.7273C118.373 17.7273 120.981 20.2815 120.981 23.5534V23.5956C120.981 26.8886 118.373 29.4639 115.026 29.4639C113.527 29.4639 112.179 28.9361 111.201 27.9651V32.8623C111.201 33.369 110.854 33.7279 110.354 33.7279ZM111.201 24.0811C111.396 26.2131 112.875 27.7118 114.874 27.8174C114.94 27.8174 115.026 27.8174 115.092 27.8174C115.809 27.8174 116.482 27.6484 117.069 27.3107C117.134 27.2685 117.178 27.2474 117.243 27.2052C117.721 26.8885 118.134 26.4875 118.438 25.9597C118.482 25.8965 118.504 25.8542 118.547 25.7909C118.613 25.6853 118.677 25.5587 118.721 25.432C118.96 24.8621 119.09 24.25 119.09 23.6167V23.5745C119.09 23.0678 119.004 22.5613 118.851 22.0968C118.808 21.9702 118.765 21.8435 118.699 21.7169C118.656 21.5902 118.59 21.4636 118.525 21.358C118.156 20.7248 117.656 20.197 117.026 19.8382C116.961 19.796 116.917 19.7749 116.852 19.7537C116.744 19.6904 116.613 19.6482 116.482 19.606C116.221 19.5216 115.961 19.4371 115.7 19.3949C115.569 19.3738 115.417 19.3527 115.287 19.3527C115.221 19.3527 115.135 19.3527 115.069 19.3527C112.961 19.3527 111.44 20.8514 111.223 23.0678V24.0811H111.201Z" fill="#757575"/>
<path d="M93.3572 29.2952C93.1176 29.2952 92.9002 29.2108 92.7267 29.0419L87.3367 23.7436C87.0111 23.427 86.9888 22.9414 87.2937 22.6037L87.3152 22.5614L92.2268 18.1497C92.3788 17.9808 92.5747 17.8964 92.792 17.8753C93.0308 17.8542 93.2481 17.9175 93.4225 18.0653C93.7919 18.3608 93.8348 18.9096 93.5307 19.2685L93.4878 19.3107L89.1405 23.1525L93.9439 27.8809C94.1174 28.0498 94.2042 28.2609 94.2042 28.493C94.2042 28.7252 94.1174 28.9364 93.9439 29.0841C93.8133 29.2108 93.596 29.2952 93.3572 29.2952Z" fill="#757575"/>
<path d="M47.087 29.4442C46.5871 29.4442 46.1959 29.0642 46.1959 28.5788V22.6683C46.1959 20.5996 45.0223 19.3753 43.0446 19.3753C41.0668 19.3753 39.8933 20.5996 39.8933 22.6683V28.5788C39.8933 29.0642 39.502 29.4442 39.0022 29.4442C38.5023 29.4442 38.1328 29.0853 38.1328 28.5788V22.4994C38.1328 19.6286 40.0019 17.771 42.8707 17.771H43.175C46.0655 17.771 47.9128 19.6286 47.9128 22.4994V28.5788C47.9346 29.0853 47.5869 29.4442 47.087 29.4442Z" fill="#757575"/>
<path d="M128.848 29.4438C125.61 29.4438 123.176 26.9318 123.176 23.5967V23.5545C123.176 20.2826 125.589 17.7073 128.675 17.7073C131.761 17.7073 134 20.1559 134 23.5122C134 23.9555 133.608 24.3354 133.13 24.3354H127.197C126.719 24.3354 126.371 23.9977 126.371 23.5545C126.371 23.09 126.719 22.7523 127.197 22.7523H132.131C131.891 21.1058 130.87 19.3327 128.61 19.3327C126.762 19.3327 125.285 20.7681 124.98 22.7945L124.937 23.1322C124.893 23.4911 124.893 23.8077 124.937 24.1033V24.1244C125.154 26.2985 126.762 27.8185 128.827 27.8185C130.087 27.8185 131.131 27.3962 132.108 26.4675C132.283 26.2985 132.478 26.2353 132.696 26.2353C133.173 26.2353 133.565 26.5941 133.565 27.0585C133.565 27.2063 133.521 27.4385 133.282 27.6495C132.022 28.916 130.696 29.4438 128.848 29.4438Z" fill="#757575"/>
</g>
<defs>
<clipPath id="clip0_2485_85326">
<rect width="134" height="48" fill="white"/>
</clipPath>
</defs>
</svg>
