<svg width="134" height="48" viewBox="0 0 134 48" fill="none" xmlns="http://www.w3.org/2000/svg">
<path d="M62.9381 20.455C62.9381 16.947 60.6328 14.2808 55.882 14.2808H46.3242V32.7191H50.8222V18.2657H55.9102C57.7937 18.2657 58.468 19.3325 58.468 20.5671C58.468 21.8301 57.7653 22.8686 55.8818 22.8686H51.5246L57.709 32.7191H62.8255C62.8255 32.7191 58.6085 26.0958 58.6369 26.0958C61.2515 25.4786 62.9381 23.6544 62.9381 20.455Z" fill="#757575"/>
<path d="M43.287 14.2808H38.7891V32.7194H43.287V14.2808Z" fill="#757575"/>
<path d="M27.2923 25.7591H23.5072L26.3082 20.0902H26.3647L32.6616 32.7191H37.834L28.4167 14.2808H24.4251L15.0078 32.7191H20.0677L21.5931 29.6321H29.1756L27.2923 25.7591Z" fill="#757575"/>
<path d="M79.3552 23.1493C80.7891 22.3633 81.5481 21.1005 81.5481 19.2482C81.5481 16.2734 79.3273 14.2808 75.5885 14.2808H65.0742V32.7191H76.0102C79.8332 32.7191 82.3352 30.6703 82.3352 27.5552C82.3349 25.3946 81.1264 23.7668 79.3552 23.1493ZM69.5727 18.1816H75.5885C76.4882 18.1816 77.1909 18.8831 77.1909 19.8094C77.1909 20.7357 76.4882 21.4372 75.5601 21.4372H69.5724V18.1816H69.5727ZM75.7006 28.8461H69.5724V25.0855H75.7006C76.7971 25.0855 77.6405 25.8715 77.6405 26.9378C77.6407 28.0322 76.7971 28.8461 75.7006 28.8461Z" fill="#757575"/>
<path d="M96.5323 24.5804C96.5323 27.3791 95.2391 28.9304 92.6812 28.9304C90.1513 28.9304 88.8581 27.3791 88.8581 24.5804V14.2808H84.248V24.2437C84.248 29.941 87.256 33.1123 92.6812 33.1123C98.1065 33.1123 101.143 29.941 101.143 24.2437V14.2808H96.5323V24.5804Z" fill="#757575"/>
<path d="M113.144 21.6054C108.874 20.5675 107.944 20.4684 107.944 19.2478C107.944 18.3035 109.012 17.8445 110.811 17.8445C113.2 17.8445 115.745 18.443 117.192 19.3321L118.626 15.5714C116.771 14.5892 114.044 13.8875 110.867 13.8875C106.116 13.8875 103.445 16.2451 103.445 19.4161C103.445 22.8284 105.44 24.2147 110.023 25.1974C113.591 25.9827 114.352 26.4727 114.352 27.4705C114.352 28.5545 113.369 29.0424 111.429 29.0424C108.618 29.0424 106.073 28.3607 104.036 27.2462L102.658 31.1752C104.879 32.3539 108.196 33.1119 111.541 33.1119C116.208 33.1119 118.991 30.9507 118.991 27.3303C118.991 24.4257 117.109 22.5598 113.144 21.6054Z" fill="#757575"/>
</svg>
