<svg width="134" height="48" viewBox="0 0 134 48" fill="none" xmlns="http://www.w3.org/2000/svg">
<path d="M127.737 29.1903C126.941 29.1903 126.224 29.0495 125.587 28.7678C124.963 28.4739 124.467 28.082 124.1 27.5922C123.732 27.0901 123.536 26.5329 123.512 25.9206H125.679C125.716 26.3492 125.918 26.7105 126.285 27.0044C126.665 27.286 127.137 27.4269 127.7 27.4269C128.288 27.4269 128.741 27.3166 129.059 27.0962C129.39 26.8635 129.555 26.5696 129.555 26.2145C129.555 25.8349 129.371 25.5532 129.004 25.3695C128.649 25.1858 128.079 24.9838 127.296 24.7633C126.536 24.5552 125.918 24.3531 125.44 24.1572C124.963 23.9612 124.547 23.6612 124.191 23.2571C123.848 22.853 123.677 22.3202 123.677 21.659C123.677 21.1201 123.836 20.6303 124.155 20.1894C124.473 19.7363 124.926 19.3812 125.514 19.124C126.114 18.8669 126.8 18.7383 127.571 18.7383C128.722 18.7383 129.647 19.0322 130.345 19.62C131.055 20.1956 131.435 20.9854 131.484 21.9896H129.39C129.353 21.5365 129.169 21.1752 128.839 20.9058C128.508 20.6364 128.061 20.5017 127.498 20.5017C126.947 20.5017 126.524 20.6058 126.23 20.814C125.936 21.0222 125.789 21.2977 125.789 21.6406C125.789 21.91 125.887 22.1366 126.083 22.3202C126.279 22.5039 126.518 22.6509 126.8 22.7611C127.081 22.8591 127.498 22.9877 128.049 23.1469C128.784 23.3428 129.384 23.5449 129.849 23.753C130.327 23.949 130.737 24.2429 131.08 24.6348C131.423 25.0266 131.6 25.5471 131.612 26.1961C131.612 26.7717 131.453 27.286 131.135 27.7391C130.816 28.1922 130.363 28.5474 129.776 28.8045C129.2 29.0617 128.52 29.1903 127.737 29.1903Z" fill="#757575"/>
<path d="M111.057 23.9184C111.057 22.902 111.265 22.0019 111.681 21.2181C112.11 20.4344 112.685 19.8282 113.408 19.3996C114.143 18.9587 114.957 18.7383 115.851 18.7383C116.512 18.7383 117.161 18.8853 117.798 19.1792C118.447 19.4608 118.961 19.8405 119.341 20.3181V15.4319H121.454V29.025H119.341V27.5004C118.998 27.9902 118.521 28.3943 117.908 28.7127C117.308 29.0311 116.616 29.1903 115.833 29.1903C114.951 29.1903 114.143 28.9699 113.408 28.529C112.685 28.0759 112.11 27.4514 111.681 26.6554C111.265 25.8471 111.057 24.9348 111.057 23.9184ZM119.341 23.9551C119.341 23.2571 119.194 22.6509 118.9 22.1366C118.619 21.6223 118.245 21.2304 117.78 20.961C117.314 20.6916 116.812 20.5569 116.273 20.5569C115.735 20.5569 115.233 20.6916 114.767 20.961C114.302 21.2181 113.922 21.6039 113.628 22.1182C113.347 22.6203 113.206 23.2204 113.206 23.9184C113.206 24.6164 113.347 25.2287 113.628 25.7553C113.922 26.2819 114.302 26.686 114.767 26.9677C115.245 27.2371 115.747 27.3718 116.273 27.3718C116.812 27.3718 117.314 27.2371 117.78 26.9677C118.245 26.6982 118.619 26.3064 118.9 25.792C119.194 25.2655 119.341 24.6532 119.341 23.9551Z" fill="#757575"/>
<path d="M109.147 15.4319V29.025H107.053V15.4319H109.147Z" fill="#757575"/>
<path d="M105.133 23.7163C105.133 24.0959 105.108 24.4388 105.059 24.745H97.3258C97.387 25.5532 97.687 26.2022 98.2258 26.6921C98.7647 27.1819 99.4259 27.4269 100.21 27.4269C101.336 27.4269 102.132 26.9554 102.598 26.0124H104.857C104.551 26.9431 103.994 27.7085 103.185 28.3086C102.389 28.8964 101.398 29.1903 100.21 29.1903C99.2423 29.1903 98.3728 28.976 97.6013 28.5474C96.842 28.1065 96.242 27.4942 95.8011 26.7105C95.3725 25.9145 95.1582 24.996 95.1582 23.9551C95.1582 22.9142 95.3664 22.0019 95.7827 21.2181C96.2114 20.4221 96.8053 19.8098 97.5645 19.3812C98.336 18.9526 99.2178 18.7383 100.21 18.7383C101.165 18.7383 102.016 18.9465 102.763 19.3628C103.51 19.7792 104.092 20.367 104.508 21.1263C104.924 21.8733 105.133 22.7366 105.133 23.7163ZM102.947 23.055C102.934 22.2835 102.659 21.6651 102.12 21.1997C101.581 20.7344 100.914 20.5017 100.118 20.5017C99.3953 20.5017 98.7769 20.7344 98.2626 21.1997C97.7482 21.6528 97.4421 22.2713 97.3441 23.055H102.947Z" fill="#757575"/>
<path d="M92.2198 17.5625C91.8402 17.5625 91.5218 17.4339 91.2647 17.1767C91.0075 16.9196 90.8789 16.6012 90.8789 16.2216C90.8789 15.8419 91.0075 15.5235 91.2647 15.2664C91.5218 15.0092 91.8402 14.8806 92.2198 14.8806C92.5872 14.8806 92.8995 15.0092 93.1567 15.2664C93.4138 15.5235 93.5424 15.8419 93.5424 16.2216C93.5424 16.6012 93.4138 16.9196 93.1567 17.1767C92.8995 17.4339 92.5872 17.5625 92.2198 17.5625ZM93.2485 18.9034V29.0248H91.1544V18.9034H93.2485Z" fill="#757575"/>
<path d="M89.4398 20.6119H87.5662V29.0249H85.4538V20.6119H84.2598V18.9036H85.4538V18.1872C85.4538 17.0238 85.7599 16.1788 86.3722 15.6522C86.9968 15.1134 87.9703 14.844 89.2929 14.844V16.5891C88.6561 16.5891 88.2091 16.7115 87.952 16.9564C87.6948 17.1891 87.5662 17.5994 87.5662 18.1872V18.9036H89.4398V20.6119Z" fill="#757575"/>
<path d="M78.5148 18.7383C79.3108 18.7383 80.0211 18.9036 80.6456 19.2342C81.2824 19.5649 81.7784 20.0547 82.1335 20.7038C82.4886 21.3528 82.6662 22.1366 82.6662 23.055V29.025H80.5905V23.3673C80.5905 22.4611 80.364 21.7692 79.9109 21.2916C79.4577 20.8017 78.8393 20.5568 78.0556 20.5568C77.2718 20.5568 76.6473 20.8017 76.1819 21.2916C75.7288 21.7692 75.5023 22.4611 75.5023 23.3673V29.025H73.4082V18.9036H75.5023V20.0609C75.8452 19.6445 76.2799 19.32 76.8065 19.0873C77.3453 18.8546 77.9147 18.7383 78.5148 18.7383Z" fill="#757575"/>
<path d="M71.49 23.7163C71.49 24.0959 71.4655 24.4388 71.4166 24.745H63.6832C63.7444 25.5532 64.0444 26.2022 64.5833 26.6921C65.1221 27.1819 65.7834 27.4269 66.5671 27.4269C67.6938 27.4269 68.4897 26.9554 68.9551 26.0124H71.2145C70.9083 26.9431 70.3511 27.7085 69.5429 28.3086C68.7469 28.8964 67.755 29.1903 66.5671 29.1903C65.5997 29.1903 64.7302 28.976 63.9587 28.5474C63.1995 28.1065 62.5994 27.4942 62.1585 26.7105C61.7299 25.9145 61.5156 24.996 61.5156 23.9551C61.5156 22.9142 61.7238 22.0019 62.1402 21.2181C62.5688 20.4221 63.1627 19.8098 63.922 19.3812C64.6935 18.9526 65.5752 18.7383 66.5671 18.7383C67.5223 18.7383 68.3734 18.9465 69.1204 19.3628C69.8674 19.7792 70.4491 20.367 70.8655 21.1263C71.2818 21.8733 71.49 22.7366 71.49 23.7163ZM69.3041 23.055C69.2919 22.2835 69.0163 21.6651 68.4775 21.1997C67.9387 20.7344 67.2713 20.5017 66.4753 20.5017C65.7528 20.5017 65.1343 20.7344 64.62 21.1997C64.1057 21.6528 63.7995 22.2713 63.7015 23.055H69.3041Z" fill="#757575"/>
<path d="M51.9984 20.3915C52.3535 19.9261 52.8372 19.5343 53.4495 19.2159C54.0618 18.8975 54.7537 18.7383 55.5252 18.7383C56.4069 18.7383 57.2091 18.9587 57.9316 19.3996C58.6663 19.8282 59.2419 20.4344 59.6583 21.2181C60.0746 22.0019 60.2828 22.9019 60.2828 23.9184C60.2828 24.9348 60.0746 25.8471 59.6583 26.6553C59.2419 27.4513 58.6663 28.0759 57.9316 28.529C57.2091 28.9699 56.4069 29.1903 55.5252 29.1903C54.7537 29.1903 54.068 29.0372 53.4679 28.7311C52.8678 28.4127 52.378 28.0208 51.9984 27.5554V33.8377H49.9043V18.9036H51.9984V20.3915ZM58.152 23.9184C58.152 23.2203 58.0051 22.6203 57.7112 22.1182C57.4295 21.6039 57.0499 21.2181 56.5723 20.9609C56.1069 20.6915 55.6048 20.5568 55.066 20.5568C54.5394 20.5568 54.0373 20.6915 53.5597 20.9609C53.0944 21.2304 52.7148 21.6222 52.4209 22.1366C52.1392 22.6509 51.9984 23.2571 51.9984 23.9551C51.9984 24.6531 52.1392 25.2654 52.4209 25.792C52.7148 26.3063 53.0944 26.6982 53.5597 26.9676C54.0373 27.237 54.5394 27.3717 55.066 27.3717C55.6048 27.3717 56.1069 27.237 56.5723 26.9676C57.0499 26.686 57.4295 26.2818 57.7112 25.7553C58.0051 25.2287 58.152 24.6164 58.152 23.9184Z" fill="#757575"/>
<path d="M41.4644 29.1534C40.2765 29.1534 39.1805 28.8779 38.1763 28.3268C37.1844 27.7635 36.3945 26.9859 35.8067 25.9939C35.2311 24.9898 34.9434 23.8631 34.9434 22.614C34.9434 21.3649 35.2311 20.2444 35.8067 19.2525C36.3945 18.2606 37.1844 17.4891 38.1763 16.938C39.1805 16.3747 40.2765 16.093 41.4644 16.093C42.6645 16.093 43.7605 16.3747 44.7524 16.938C45.7566 17.4891 46.5465 18.2606 47.1221 19.2525C47.6976 20.2444 47.9854 21.3649 47.9854 22.614C47.9854 23.8631 47.6976 24.9898 47.1221 25.9939C46.5465 26.9859 45.7566 27.7635 44.7524 28.3268C43.7605 28.8779 42.6645 29.1534 41.4644 29.1534ZM41.4644 27.3349C42.3094 27.3349 43.0625 27.1451 43.7238 26.7654C44.3851 26.3736 44.8994 25.8225 45.2668 25.1122C45.6464 24.3897 45.8362 23.557 45.8362 22.614C45.8362 21.6711 45.6464 20.8445 45.2668 20.1342C44.8994 19.4239 44.3851 18.879 43.7238 18.4994C43.0625 18.1197 42.3094 17.9299 41.4644 17.9299C40.6194 17.9299 39.8663 18.1197 39.205 18.4994C38.5437 18.879 38.0232 19.4239 37.6436 20.1342C37.2762 20.8445 37.0925 21.6711 37.0925 22.614C37.0925 23.557 37.2762 24.3897 37.6436 25.1122C38.0232 25.8225 38.5437 26.3736 39.205 26.7654C39.8663 27.1451 40.6194 27.3349 41.4644 27.3349Z" fill="#757575"/>
<path fill-rule="evenodd" clip-rule="evenodd" d="M24.7796 23.8944L11.7576 24.8115L16.6289 27.5938L24.4233 25.7443C24.5915 25.1463 24.7117 24.5282 24.7796 23.8944ZM23.5777 27.8812L16.7123 29.5103L7.15126 32.0034C8.96881 33.2509 11.1693 33.9809 13.5404 33.9809C17.9067 33.9809 21.6948 31.5053 23.5777 27.8812ZM5.59284 30.7154C3.52041 28.6663 2.23633 25.8215 2.23633 22.6768C2.23633 22.2657 2.25828 21.8596 2.30108 21.4598L8.1151 24.9005L8.12135 24.9042L8.12765 24.9078L14.0104 28.2679L5.53116 30.4789L5.59284 30.7154ZM2.68881 19.5001C4.06143 14.8035 8.40025 11.3728 13.5404 11.3728C19.557 11.3728 24.4758 16.0734 24.8246 22.0026L8.82176 23.1295L2.68881 19.5001Z" fill="#757575"/>
</svg>
