<svg width="134" height="48" viewBox="0 0 134 48" fill="none" xmlns="http://www.w3.org/2000/svg">
<g clip-path="url(#clip0_2485_85343)">
<path d="M118.276 31.6877C118.161 31.6884 118.048 31.6664 117.942 31.623C117.836 31.5796 117.74 31.5157 117.659 31.4349C117.578 31.3542 117.514 31.2582 117.471 31.1526C117.427 31.0469 117.405 30.9337 117.406 30.8195C117.406 30.3501 117.791 29.9513 118.276 29.9513C118.746 29.9513 119.145 30.3357 119.145 30.8195C119.141 31.0486 119.048 31.2672 118.886 31.4292C118.724 31.5912 118.505 31.6839 118.276 31.6877ZM118.276 30.1223C118.09 30.1229 117.913 30.1965 117.782 30.3271C117.651 30.4577 117.578 30.6348 117.577 30.8195C117.578 31.0042 117.651 31.1813 117.782 31.3119C117.913 31.4425 118.09 31.5161 118.276 31.5167C118.461 31.5161 118.638 31.4425 118.769 31.3119C118.9 31.1813 118.973 31.0042 118.974 30.8195C118.973 30.6348 118.9 30.4577 118.769 30.3271C118.638 30.1965 118.461 30.1229 118.276 30.1223ZM118.717 31.275H118.517L118.346 30.9474H118.118V31.275H117.933V30.3213H118.389C118.589 30.3213 118.717 30.4491 118.717 30.6345C118.718 30.6969 118.7 30.758 118.664 30.8091C118.628 30.8602 118.577 30.8987 118.518 30.919L118.718 31.2786L118.717 31.275ZM118.375 30.7768C118.446 30.7768 118.518 30.734 118.518 30.6345C118.518 30.5207 118.461 30.4923 118.375 30.4923H118.09V30.7768H118.375ZM33.7744 37.8495H27.6916V29.8658H29.9154V35.9138H33.7784L33.7744 37.8495ZM36.0695 33.8791V33.8511C36.0695 31.5598 37.9224 29.696 40.3887 29.696C42.8551 29.696 44.6795 31.5319 44.6795 33.8231V33.8511C44.6795 36.1424 42.8267 38.0061 40.3603 38.0061C37.894 38.0061 36.0695 36.1703 36.0695 33.8791ZM42.4269 33.8791V33.8511C42.4269 32.6985 41.6001 31.7017 40.3739 31.7017C39.1622 31.7017 38.3498 32.6837 38.3498 33.8363V33.8643C38.3498 35.0169 39.1766 36.0137 40.3883 36.0137C41.6141 36.0137 42.4269 35.0317 42.4269 33.8791ZM47.4012 34.3485V29.8658H49.6535V34.3057C49.6535 35.4584 50.2377 35.9997 51.1221 35.9997C52.0066 35.9997 52.5908 35.4732 52.5908 34.3633V29.8658H54.8431V34.2914C54.8431 36.8671 53.3744 37.9909 51.0941 37.9909C48.8275 37.9909 47.402 36.8523 47.402 34.3473L47.4012 34.3485ZM58.2351 29.8646H61.3141C64.165 29.8646 65.833 31.5011 65.833 33.8067V33.8347C65.833 36.14 64.151 37.8479 61.2717 37.8479H58.2355V29.8658L58.2351 29.8646ZM61.3565 35.8843C62.6823 35.8843 63.5656 35.1583 63.5656 33.8635V33.8355C63.5656 32.5546 62.6819 31.8147 61.3565 31.8147H60.4585V35.8707H61.3565V35.8843ZM71.2635 33.1663H75.0553V35.0021H71.2635V37.8483H69.0545V29.8658H75.4547V31.8011H71.2639L71.2635 33.1663ZM84.6202 37.8487H78.5373V29.8658H80.7464V35.9138H84.6242L84.6202 37.8487ZM90.4077 29.8087H92.5459L95.9527 37.8491H93.5716L92.9873 36.426H89.9083L89.338 37.8491H87.0145L90.4077 29.8087ZM92.3606 34.7041L91.477 32.4456L90.579 34.7085H92.3606V34.7041ZM98.8036 29.8658H102.581C103.807 29.8658 104.648 30.1791 105.19 30.734C105.66 31.1895 105.902 31.8007 105.902 32.5982V32.6262C105.902 33.8499 105.246 34.6613 104.263 35.074L106.173 37.8635H103.607L101.996 35.4444H101.027V37.8635H98.8032V29.8658H98.8036ZM102.485 33.6941C103.241 33.6941 103.668 33.3241 103.668 32.7552V32.7272C103.668 32.1012 103.212 31.7884 102.471 31.7884H101.017V33.6953H102.486L102.485 33.6941ZM111.295 32.9542H115.129V34.7041H111.295V35.9706H115.585V37.8491H109.1V29.8658H115.529V31.7444H111.295V32.9542ZM22.8409 34.8187C22.5272 35.5159 21.8717 36.0141 21.0161 36.0141C19.8043 36.0141 18.9775 35.0033 18.9775 33.8647V33.8367C18.9775 32.6841 19.7899 31.7021 21.0017 31.7021C21.9141 31.7021 22.6124 32.2574 22.8974 33.0257H25.2353C24.8647 31.1187 23.1823 29.7096 21.0161 29.7096C18.5501 29.7088 16.6973 31.5738 16.6973 33.8647V33.8926C16.6973 36.1839 18.5221 38.0197 20.9881 38.0197C23.0979 38.0197 24.7514 36.6533 25.1788 34.8315L22.8409 34.8171V34.8187Z" fill="#757575"/>
<path d="M101.768 24.857C102.067 23.8323 101.953 22.893 101.454 22.1962C100.998 21.5558 100.228 21.1854 99.301 21.1431L81.7536 20.9153C81.7002 20.9157 81.6475 20.903 81.6002 20.8782C81.553 20.8533 81.5126 20.8173 81.4827 20.7731C81.4258 20.6876 81.4114 20.5733 81.4398 20.4599C81.4967 20.2893 81.6679 20.161 81.8532 20.1467L99.5575 19.9189C101.653 19.819 103.934 18.1259 104.732 16.0475L105.744 13.4107C105.787 13.2968 105.801 13.183 105.772 13.0691C104.633 7.92205 100.029 4.07983 94.5264 4.07983C89.452 4.07983 85.1468 7.35313 83.6072 11.8925C82.6096 11.1526 81.3406 10.7539 79.9723 10.8817C77.5352 11.1238 75.5823 13.0731 75.3398 15.5066C75.283 16.1326 75.3254 16.7451 75.4678 17.314C71.4908 17.4279 68.3125 20.6724 68.3125 24.6713C68.3125 25.0308 68.3405 25.3824 68.3837 25.738C68.4117 25.9086 68.5546 26.0368 68.7259 26.0368H101.112C101.298 26.0368 101.472 25.909 101.526 25.7236L101.768 24.8554L101.768 24.857Z" fill="#757575"/>
<path d="M107.358 13.6011L106.874 13.6155C106.76 13.6155 106.66 13.701 106.617 13.8152L105.937 16.1924C105.638 17.2172 105.752 18.1564 106.251 18.8532C106.707 19.4936 107.477 19.864 108.404 19.9064L112.138 20.1341C112.192 20.1337 112.244 20.1464 112.292 20.1713C112.339 20.1961 112.379 20.2322 112.409 20.2763C112.466 20.3618 112.481 20.4897 112.452 20.5895C112.395 20.7601 112.224 20.8884 112.039 20.9028L108.147 21.1305C106.038 21.2304 103.771 22.9236 102.973 25.0019L102.688 25.7278C102.631 25.87 102.731 26.0123 102.888 26.0123H116.258C116.415 26.0123 116.558 25.9124 116.601 25.7566C116.829 24.9312 116.961 24.0626 116.961 23.1665C116.961 17.9007 112.656 13.6031 107.367 13.6031" fill="#757575"/>
</g>
<defs>
<clipPath id="clip0_2485_85343">
<rect width="134" height="48" fill="white"/>
</clipPath>
</defs>
</svg>
