<svg width="134" height="48" viewBox="0 0 134 48" fill="none" xmlns="http://www.w3.org/2000/svg">
<g clip-path="url(#clip0_2445_86434)">
<path d="M15.9393 21.2822C15.852 21.2822 15.7786 21.2844 15.7372 21.289C15.689 21.3759 15.6178 21.4926 15.5121 21.655C17.1566 21.655 18.6496 21.79 20.301 22.085L19.8348 22.5334C18.3441 22.2703 17.1061 22.1651 15.5282 22.1651C15.2985 22.1651 15.2503 22.1651 15.1952 22.1674C15.14 22.2497 15.016 22.4098 14.892 22.5585C15.0321 22.5494 15.3031 22.5448 15.6775 22.5448C16.9752 22.5448 18.1879 22.6409 19.504 22.8514L19.0377 23.302C18.0363 23.1464 16.8121 23.0572 15.7142 23.0572C15.3238 23.0572 14.8805 23.0709 14.4831 23.0938C14.3936 23.1967 14.1593 23.4484 14.0881 23.5261C14.614 23.4712 15.1929 23.446 15.8819 23.446C16.8627 23.446 17.7998 23.5101 18.6864 23.6405L18.2201 24.0865C17.5885 24.0088 16.8213 23.963 16.1438 23.963C14.3959 23.963 13.0177 24.3404 11.5937 25.2074C12.9511 26.6576 15.1745 27.5748 17.3289 27.5748H17.531L16.7777 28.3001C13.6701 27.719 10.3994 26.358 7.63628 24.4937C4.97882 22.7072 4.04861 22.1789 1.97458 21.2662L1.9608 20.7355L3.36416 21.3348L3.84191 20.9573L8.42408 23.0481L8.12548 23.2859L5.77353 22.2681L5.54155 22.4487L6.7635 23.1281C7.79479 23.7 8.58026 23.9562 9.30609 23.9562C10.8932 23.9562 12.3173 22.8353 13.236 20.8659C13.9273 20.7766 14.6646 20.7355 15.5512 20.7355C17.3703 20.7355 19.1365 20.9093 21.1371 21.2822L20.6501 21.7511C19.4053 21.4926 17.2899 21.2822 15.9393 21.2822ZM11.4858 34.309C5.52469 34.309 0.689202 29.4933 0.689202 23.5567C0.689202 17.6201 5.52469 12.8044 11.4858 12.8044C17.4468 12.8044 22.2823 17.6201 22.2823 23.5567C22.2823 29.4933 17.4468 34.309 11.4858 34.309ZM11.4858 12.1181C5.1342 12.1181 0 17.2312 0 23.5567C0 29.8823 5.1342 34.9954 11.4858 34.9954C17.8374 34.9954 22.9715 29.8823 22.9715 23.5567C22.9715 17.2312 17.8374 12.1181 11.4858 12.1181ZM41.8299 28.1104H48.415V31.1825H38.2858V15.9309H41.8299V28.1104ZM56.3785 20.2014H59.6819V31.1825H56.5754V29.9188C56.1159 30.7685 55.1753 31.5092 53.4469 31.5092C50.6248 31.5092 49.159 30.2456 49.159 26.6288V20.2014H52.4625V26.4762C52.4625 27.9361 53.097 28.5896 54.4315 28.5896C55.6347 28.5896 56.3785 27.9361 56.3785 26.4762V20.2014ZM62.2198 19.7875C62.2198 17.1294 63.9045 15.7131 66.5516 15.7131C67.405 15.7131 67.9518 15.8438 67.9518 15.8438V18.5019C67.9518 18.5019 67.4924 18.4585 67.0985 18.4585C66.0703 18.4585 65.5233 18.8071 65.5233 19.7657V20.2014H67.9518V22.8813H65.5233V31.1825H62.2198V22.8813H60.5572V20.2014H62.2198V19.7875ZM73.7708 20.2014H76.2868V22.8813H73.7708V27.1517C73.7708 28.3283 74.3835 28.6333 75.3462 28.6333C75.7401 28.6333 76.2868 28.568 76.2868 28.568V31.2043C76.2868 31.2043 75.5213 31.3785 74.712 31.3785C72.0647 31.3785 70.4677 30.1802 70.4677 27.5222V22.8813H68.8048V20.2014H70.4677V16.9986H73.7708V20.2014ZM83.6008 19.8746C86.4015 19.8746 87.8672 21.1382 87.8672 24.755V31.1825H84.5635V24.9075C84.5635 23.4478 83.9292 22.7943 82.551 22.7943C81.3036 22.7943 80.5602 23.4478 80.5602 24.9075V31.1825H77.2566V15.9528H80.5818V21.269C81.1507 20.4628 82.0475 19.8746 83.6008 19.8746ZM96.2897 26.912C96.2897 28.1104 95.1519 29.0038 93.4021 29.0038C92.549 29.0038 92.0455 28.6116 92.0455 27.8707C92.0455 27.3043 92.3956 26.825 93.5117 26.6726L95.4151 26.411C95.743 26.3673 96.0931 26.3021 96.2897 26.2367V26.912ZM94.4523 19.8747C91.1924 19.8747 89.617 21.1166 89.4863 23.4479H92.7019C92.7457 22.8377 93.0957 22.3802 94.4523 22.3802C95.6555 22.3802 96.2243 22.7725 96.2243 23.3606C96.2243 23.8837 95.8959 24.0797 95.0866 24.1668L92.9866 24.3847C90.1422 24.6896 88.8515 25.8662 88.8515 28.0016C88.8515 29.9842 90.0768 31.5092 92.6803 31.5092C94.4523 31.5092 95.5026 30.9428 96.421 29.8097V31.1825H99.4405V23.9707C99.4405 20.9422 97.6684 19.8747 94.4523 19.8747ZM107.079 19.8746C109.945 19.8746 111.411 21.1382 111.411 24.755V31.1825H108.107V24.9075C108.107 23.4478 107.473 22.7943 106.095 22.7943C104.847 22.7943 104.104 23.4478 104.104 24.9075V31.1825H100.8V20.2015H103.907V21.4652C104.367 20.6154 105.307 19.8746 107.079 19.8746ZM118.38 24.2975C121.18 24.668 122.58 25.5394 122.58 27.8272C122.58 30.1367 120.939 31.5093 117.461 31.5093C113.676 31.5093 112.341 30.0061 112.276 27.8053H115.536C115.623 28.6116 116.192 29.0038 117.461 29.0038C118.751 29.0038 119.276 28.6986 119.276 28.0887C119.276 27.5222 118.839 27.2608 117.702 27.1083L116.542 26.9556C114.113 26.6289 112.713 25.692 112.713 23.5132C112.713 21.4216 114.267 19.8746 117.527 19.8746C120.546 19.8746 122.165 21.0729 122.318 23.4478H119.101C118.992 22.8161 118.642 22.4238 117.527 22.4238C116.433 22.4238 116.017 22.7943 116.017 23.2737C116.017 23.7528 116.28 24.0143 117.22 24.1451L118.38 24.2975ZM130.85 26.9122C130.85 28.1105 129.712 29.0038 127.962 29.0038C127.109 29.0038 126.606 28.6116 126.606 27.8707C126.606 27.3043 126.956 26.825 128.071 26.6726L129.975 26.411C130.303 26.3675 130.653 26.3021 130.85 26.2367V26.9122ZM129.012 19.8747C125.752 19.8747 124.177 21.1166 124.046 23.4479H127.262C127.306 22.8377 127.656 22.3804 129.012 22.3804C130.216 22.3804 130.784 22.7725 130.784 23.3608C130.784 23.8837 130.456 24.0797 129.647 24.1668L127.546 24.3847C124.702 24.6898 123.412 25.8663 123.412 28.0016C123.412 29.9842 124.636 31.5092 127.24 31.5092C129.012 31.5092 130.062 30.9428 130.981 29.8097V31.1825H134V23.9707C134 20.9424 132.228 19.8747 129.012 19.8747Z" fill="#757575"/>
</g>
<defs>
<clipPath id="clip0_2445_86434">
<rect width="134" height="48" fill="white"/>
</clipPath>
</defs>
</svg>
