<svg width="134" height="48" viewBox="0 0 134 48" fill="none" xmlns="http://www.w3.org/2000/svg">
<path fill-rule="evenodd" clip-rule="evenodd" d="M29.3087 12.3518H3.27063C1.48088 12.3518 0 13.7645 0 15.5904V31.8241C0 33.6492 1.48088 35.0971 3.27063 35.0971H29.3087C31.0655 35.0971 32.5472 33.6492 32.5472 31.8241V15.5904C32.5472 13.7645 31.0655 12.3518 29.3087 12.3518ZM30.1699 31.8238C30.1699 32.3411 29.8257 32.7551 29.3091 32.7551H3.27024C2.7544 32.7551 2.37576 32.3411 2.37576 31.8238V15.5901C2.37576 15.0735 2.7544 14.6603 3.27024 14.6603H29.3091C29.8257 14.6603 30.1699 15.0735 30.1699 15.5901V31.8238ZM24.6936 26.7907C24.6936 25.2747 23.7294 24.9303 22.3175 24.9303H21.0083V28.7551H22.283C23.5577 28.7551 24.6936 28.3419 24.6936 26.7907ZM21.0083 22.1739H22.2493C23.4197 22.1739 24.2797 21.6565 24.2797 20.3816C24.2797 18.9681 23.1775 18.5885 22.007 18.5885H21.0083V22.1739ZM23.2473 31.1688H17.4617V16.2797H23.5232C26.3823 16.2797 27.9306 17.4521 27.9306 20.2438C27.9306 21.6917 26.7256 22.7248 25.4164 23.3799C27.243 23.8957 28.4825 25.0008 28.4825 26.8604C28.4825 29.8939 25.9338 31.1688 23.2473 31.1688ZM12.3303 23.965C12.3303 20.9659 12.0191 18.6242 8.78296 18.6242H8.05859V28.7556H9.33251C11.2273 28.7556 12.3303 27.2396 12.3303 23.965ZM9.9534 31.1685H4.47673V16.2802H9.9534C13.8104 16.2802 15.8761 18.6923 15.8761 23.6551C15.8761 27.9635 14.4987 31.134 9.9534 31.1685Z" fill="#757575"/>
<path fill-rule="evenodd" clip-rule="evenodd" d="M45.9414 23.5202C45.9414 23.5202 46.1476 23.6071 46.1452 23.6063C48.4978 24.5807 49.2935 25.5598 49.2935 27.4851C49.2935 30.0256 47.5336 31.4249 44.3406 31.4249C42.9585 31.4249 41.9025 31.2011 40.6913 30.6493L40.6152 30.6126V27.9719L40.8057 28.0658C42.1087 28.7076 42.9812 28.9361 44.1359 28.9361C45.4726 28.9361 46.1523 28.526 46.1523 27.723C46.1523 27.0343 45.9367 26.7979 43.6601 25.8548C41.5191 24.9861 40.685 23.9319 40.685 22.0942C40.685 19.6555 42.358 18.2561 45.2774 18.2561C46.3631 18.2561 47.3094 18.4322 48.4398 18.84L48.5268 18.8728V21.5127L48.3426 21.4337C47.1659 20.9179 46.4259 20.7457 45.4138 20.7457C44.2684 20.7457 43.6899 21.0987 43.6899 21.7905C43.6899 22.1826 43.8333 22.4159 44.2645 22.718C44.5676 22.9327 44.6248 22.9572 45.8502 23.4812L45.8502 23.4812L45.9414 23.5202ZM56.809 28.9175C57.8242 28.9175 58.6089 28.761 59.8138 28.3141L59.9902 28.2483V30.6988L59.9142 30.7332C58.9523 31.1864 57.8195 31.4251 56.6381 31.4251C54.5277 31.4251 52.85 30.763 51.7854 29.5084C50.8706 28.4197 50.4441 26.9593 50.4441 24.9182C50.4441 22.5115 51.0697 20.85 52.4134 19.6838C53.4874 18.7486 54.9831 18.2563 56.7415 18.2563C57.8736 18.2563 58.8558 18.4191 59.8358 18.7736L59.9212 18.8065V21.419L59.7417 21.3477C58.6967 20.9392 57.8242 20.7631 56.827 20.7631C54.6743 20.7631 53.8754 21.8831 53.8754 24.901C53.8754 27.7928 54.6978 28.9175 56.809 28.9175ZM69.6057 18.5464V23.4419H65.1004V18.5464H61.8384V31.1705H65.1004V25.9667H69.6057V31.1705H72.8677V18.5464H69.6057ZM78.5563 25.9668V28.6106H84.5465L84.3199 31.1706H75.2951V18.5465H84.0581V21.1042H78.5563V23.5273H82.901V25.9668H78.5563ZM94.3039 18.5464V25.4455C93.8736 24.8796 89.0515 18.5464 89.0515 18.5464H86.3155V31.1705H89.0821V23.5389C89.5172 24.1087 94.8997 31.1705 94.8997 31.1705H97.0713V18.5464H94.3039ZM110.314 18.5464C110.314 18.5464 105.664 24.3372 105.539 24.4938C105.663 24.6519 110.733 31.1705 110.733 31.1705H106.858L102.76 25.8313V31.1705H99.5002V18.5464H102.76V23.9357C103.182 23.3918 106.925 18.5464 106.925 18.5464H110.314ZM115.16 28.6106V25.9668H119.505V23.5273H115.16V21.1042H120.662V18.5465H111.901V31.1706H120.925L121.154 28.6106H115.16ZM127.669 20.9832H126.182V23.9698H127.669C128.891 23.9698 129.345 23.5581 129.345 22.453C129.345 21.3416 128.938 20.9832 127.669 20.9832ZM130.117 25.4255C130.525 25.6728 130.898 26.0375 131.257 26.6198L134 31.1709H130.44L128.171 27.35C127.597 26.3842 127.331 26.1901 126.598 26.1901H126.182V31.1709H122.919V18.5468H127.77C130.966 18.5468 132.52 19.7677 132.52 22.2824C132.52 23.9408 131.776 24.8839 130.117 25.4255Z" fill="#757575"/>
</svg>
