<svg width="134" height="48" viewBox="0 0 134 48" fill="none" xmlns="http://www.w3.org/2000/svg">
<path d="M65.9598 37.8143C61.5496 37.6562 57.0191 36.5974 52.3873 34.6424C50.5024 33.8467 48.5088 32.8611 46.4802 31.7219C45.1423 30.9706 42.0796 29.1252 41.909 28.9676C41.8018 28.8685 41.7598 28.7755 41.7598 28.6372C41.7598 28.3811 41.9467 28.1982 42.208 28.1986C42.3434 28.1988 42.3761 28.2128 42.6959 28.408C43.9795 29.1912 45.7549 30.0783 47.4848 30.8009C55.5415 34.1664 65.0865 35.3481 74.249 34.1146C80.5064 33.2722 86.5209 31.3012 91.2127 28.5554C91.8896 28.1592 91.952 28.1384 92.1548 28.2412C92.4349 28.3833 92.4957 28.7312 92.2775 28.9441C92.1917 29.0277 92.0864 29.0941 90.5464 30.0355C86.4391 32.5459 83.123 34.2033 79.6703 35.4715C75.0262 37.1772 70.3723 37.9724 65.9598 37.8143Z" fill="#757575"/>
<path fill-rule="evenodd" clip-rule="evenodd" d="M20.7383 9.60981C20.7383 9.60981 20.8251 9.87888 20.9091 10.6436C21.0098 12.5485 21.0152 14.1275 21.0268 15.8881C21.05 17.2477 21.0364 18.5724 21.0245 19.8481C21.0164 20.712 21.0104 21.1829 21.0104 21.9684C21.0104 24.3057 20.8221 25.944 20.8221 25.944C20.8221 25.944 22.5774 26.3158 25.2269 26.3158C27.8773 26.3158 30.6894 25.4129 32.3121 24.0582C33.9344 22.7036 35.3944 20.7646 35.3944 17.2856C35.3944 13.8064 33.8803 11.894 31.8795 10.6459C29.8781 9.39727 26.8225 9.15863 24.4698 9.26468C22.1176 9.37117 20.8197 9.60981 20.7383 9.60981H20.7383ZM112.892 22.7036L109.352 21.8805C108.423 22.783 107.42 23.2315 106.131 23.2082C103.478 23.1604 102.16 21.6243 101.669 19.0913H113.08C113.242 18.1884 113.296 17.2322 113.242 16.3293C113.133 14.5055 112.563 12.8269 111.403 11.3895C110.255 9.96645 108.279 9.22015 105.837 9.238C103.544 9.25509 101.669 10.0271 100.185 11.5756C98.7906 13.0302 97.9559 15.2486 97.9947 18.1352C98.032 20.8775 98.7424 22.9193 100.482 24.5894C101.694 25.7521 103.322 26.3731 105.458 26.3687C109.528 26.2481 111.219 24.9597 112.892 22.7036ZM109.994 16.2765H101.803C101.948 14.1956 103.888 12.2576 105.943 12.2672C108.07 12.2768 109.896 13.7711 109.994 16.2765ZM74.0761 12.3866C76.785 12.3866 78.9817 14.7952 78.9817 17.7652C78.9817 20.7352 76.785 23.1439 74.0761 23.1439C71.3682 23.1439 69.1712 20.7352 69.1712 17.7652C69.1712 14.7952 71.3682 12.3866 74.0761 12.3866ZM74.1816 9.16675C78.7272 9.16675 82.413 13.0458 82.413 17.7652C82.413 22.4846 78.6217 26.3117 74.0761 26.3117C69.5315 26.3117 65.8453 22.4846 65.8453 17.7652C65.8453 13.0458 69.637 9.16675 74.1816 9.16675ZM83.1263 25.7314H86.801V14.8153C90.1633 17.7105 92.6408 21.3494 94.1279 25.7314L97.2847 25.75V9.71587L93.7659 9.71587L93.7621 17.5714C92.6605 15.7619 91.3116 14.2737 89.9853 12.9908C88.6569 11.7059 87.578 10.6179 86.2332 9.71587H83.1263L83.1263 25.7314ZM51.0241 25.7314H54.5935V14.8153C57.9557 17.7105 60.381 21.3494 61.8681 25.7314H65.0588V9.71587H61.489V17.4434C59.4149 14.5083 56.9022 11.8719 54.0261 9.71587H51.0241V25.7314ZM40.83 9.71587H44.2913C47.6522 13.3681 49.7095 18.6801 50.4027 25.7314H46.6436C46.5459 24.5067 46.3936 23.3812 46.1869 22.251H38.7665C38.5604 23.3794 38.4095 24.5048 38.3151 25.7314H34.6645C35.323 18.6376 37.529 13.1488 40.83 9.71587ZM45.4943 19.2511C44.6874 16.72 43.7268 14.6377 42.4265 12.7171C41.1347 14.6451 40.1243 16.8187 39.4102 19.2511H45.4943ZM24.5012 12.3985C24.5012 12.3985 25.2269 12.3719 26.1196 12.3719C27.0122 12.3719 28.9618 12.5313 30.3947 13.9125C31.8277 15.2937 31.8548 16.8605 31.8548 17.9497C31.8548 19.0386 31.4738 21.4022 29.121 22.4644C26.7687 23.5272 24.4742 23.1287 24.4742 23.1287L24.5012 12.3985Z" fill="#757575"/>
</svg>
